<svg width="33" height="29" viewBox="0 0 33 29" fill="none" xmlns="http://www.w3.org/2000/svg">
    <g clip-path="url(#clip0)">
        <path
            d="M16.7099 28.7219C16.542 24.8288 14.8206 21.2137 11.8817 18.5521C8.94277 15.9301 5.12216 14.5397 1.13361 14.6986L0.965668 10.726C6.0878 10.5274 11 12.2754 14.7367 15.6521C18.4733 19.0288 20.6565 23.5973 20.8664 28.5233L16.7099 28.7219Z"
            fill="#6FD066" />
        <path
            d="M28.8015 29C28.5076 22.0479 25.3588 15.6123 19.9847 10.8849C14.5687 6.15754 7.51527 3.73425 0.167939 4.01233L0 0.0397306C8.48092 -0.278078 16.584 2.54247 22.7977 7.98494C29.0115 13.4274 32.6221 20.8164 33 28.8411L28.8015 29Z"
            fill="#6FD066" />
        <path
            d="M4.78625 28.7219C6.68763 28.7219 8.229 27.2635 8.229 25.4644C8.229 23.6653 6.68763 22.2068 4.78625 22.2068C2.88488 22.2068 1.34351 23.6653 1.34351 25.4644C1.34351 27.2635 2.88488 28.7219 4.78625 28.7219Z"
            fill="#6FD066" />
    </g>
    <defs>
        <clipPath id="clip0">
            <rect width="33" height="29" fill="white" />
        </clipPath>
    </defs>
</svg>
