<svg width="90" height="76" viewBox="0 0 90 76" fill="none" xmlns="http://www.w3.org/2000/svg">
    <ellipse cx="21.4773" cy="15.4054" rx="15.3409" ry="15.4054" fill="#587ADE" />
    <path
        d="M0 52.2881C0 40.4265 9.6157 30.8108 21.4773 30.8108C33.3388 30.8108 42.9545 40.4265 42.9545 52.2881V76H0V52.2881Z"
        fill="#587ADE" />
    <g clip-path="url(#clip0)">
        <path
            d="M68.796 44.815C68.5774 39.5757 66.3368 34.7107 62.5113 31.1288C58.6858 27.6003 53.7127 25.7291 48.521 25.943L48.3024 20.5968C54.9697 20.3295 61.3637 22.6818 66.2275 27.2261C71.0913 31.7703 73.9331 37.9184 74.2063 44.5477L68.796 44.815Z"
            fill="#838DEA" />
        <path
            d="M84.5351 45.1892C84.1525 35.8334 80.0538 27.1726 73.0587 20.8107C66.0089 14.4487 56.8277 11.1876 47.2641 11.5618L47.0455 6.21562C58.0847 5.78792 68.632 9.5837 76.7202 16.908C84.8083 24.2322 89.5082 34.1761 90 44.9753L84.5351 45.1892Z"
            fill="#838DEA" />
        <path
            d="M53.2755 44.8149C55.7504 44.8149 57.7568 42.8522 57.7568 40.4311C57.7568 38.0099 55.7504 36.0472 53.2755 36.0472C50.8006 36.0472 48.7943 38.0099 48.7943 40.4311C48.7943 42.8522 50.8006 44.8149 53.2755 44.8149Z"
            fill="#838DEA" />
    </g>
    <defs>
        <clipPath id="clip0">
            <rect width="42.9545" height="39.027" fill="white"
                transform="translate(47.0455 6.16216)" />
        </clipPath>
    </defs>
</svg>
