<svg width="360" height="699" viewBox="0 0 360 699" fill="none" xmlns="http://www.w3.org/2000/svg">
    <path opacity="0.99" d="M361 0H0V699H361V0Z" fill="url(#paint0_linear)" />
    <path
        d="M327 485.279C327 485.279 180 355.595 113 356.632C45.9 357.669 0 411.618 0 411.618V564.231L327 488.703V485.279Z"
        fill="url(#paint1_linear)" />
    <path
        d="M0 499.908C0 499.908 63 458.305 115 411.618C167 364.932 219 325.508 279 322.395C339 319.283 361 335.571 361 335.571V477.498V699H0V499.908Z"
        fill="url(#paint2_linear)" />
    <ellipse cx="295.5" cy="47.5102" rx="2.5" ry="2.73047" fill="white" />
    <ellipse cx="74.5" cy="142.53" rx="1.5" ry="1.63828" fill="white" />
    <ellipse cx="247.5" cy="18.0211" rx="1.5" ry="1.63828" fill="white" />
    <ellipse cx="189.5" cy="51.8789" rx="1.5" ry="1.63828" fill="white" />
    <ellipse cx="244.5" cy="98.6383" rx="1.5" ry="1.63828" fill="white" />
    <ellipse cx="343.5" cy="115.226" rx="1.5" ry="1.63829" fill="white" />
    <ellipse cx="106.5" cy="66.0773" rx="2.5" ry="2.73047" fill="white" />
    <ellipse cx="32.5" cy="25.6664" rx="2.5" ry="2.73047" fill="white" />
    <defs>
        <linearGradient id="paint0_linear" x1="173.255" y1="709.522" x2="190.308" y2="-0.889402"
            gradientUnits="userSpaceOnUse">
            <stop offset="0.41003" stop-color="#FBB11A" />
            <stop offset="0.552108" stop-color="#9978DE" />
            <stop offset="0.650229" stop-color="#2D68C0" />
            <stop offset="0.804917" stop-color="#224F88" />
            <stop offset="1" stop-color="#22486B" />
        </linearGradient>
        <linearGradient id="paint1_linear" x1="160.965" y1="569.843" x2="165.779" y2="358.75"
            gradientUnits="userSpaceOnUse">
            <stop offset="2.02456e-07" stop-color="#3D61C1" />
            <stop offset="1" stop-color="#578CED" />
        </linearGradient>
        <linearGradient id="paint2_linear" x1="178.232" y1="706.515" x2="187.017" y2="321.236"
            gradientUnits="userSpaceOnUse">
            <stop stop-color="#265AC1" />
            <stop offset="1" stop-color="#8B66D2" />
        </linearGradient>
    </defs>
</svg>
