<svg width="62" height="73" viewBox="0 0 62 73" fill="none" xmlns="http://www.w3.org/2000/svg">
    <ellipse cx="32.2602" cy="10.9459" rx="10.9001" ry="10.9459" fill="#587ADE" />
    <path
        d="M17 37.1521C17 28.7241 23.8322 21.8919 32.2602 21.8919V21.8919C40.6881 21.8919 47.5203 28.7241 47.5203 37.1521V54H17V37.1521Z"
        fill="#587ADE" />
    <ellipse cx="15" cy="30.5" rx="11" ry="10.5" fill="#838DEA" />
    <path d="M0 56C0 47.7157 6.71573 41 15 41V41C23.2843 41 30 47.7157 30 56V73H0V56Z"
        fill="#838DEA" />
    <ellipse cx="47" cy="30.5" rx="11" ry="10.5" fill="#FBB11A" />
    <path d="M32 56C32 47.7157 38.7157 41 47 41V41C55.2843 41 62 47.7157 62 56V73H32V56Z"
        fill="#FBB11A" />
    <ellipse cx="32" cy="51.1429" rx="12" ry="12.1429" fill="white" />
    <path fill-rule="evenodd" clip-rule="evenodd"
        d="M38.1465 47.1934C38.7591 47.7996 38.7591 48.7825 38.1465 49.3888L30.9668 56.4937C30.3542 57.0999 29.3609 57.0999 28.7483 56.4937L25.1337 52.9168C24.521 52.3105 24.521 51.3276 25.1337 50.7213C25.7463 50.1151 26.7396 50.1151 27.3522 50.7213L29.8575 53.2006L35.928 47.1934C36.5406 46.5871 37.5339 46.5871 38.1465 47.1934Z"
        fill="#0094D3" />
</svg>
