<?xml version="1.0" encoding="UTF-8" standalone="no"?>
<svg xmlns:dc="http://purl.org/dc/elements/1.1/" xmlns:cc="http://creativecommons.org/ns#"
    xmlns:rdf="http://www.w3.org/1999/02/22-rdf-syntax-ns#" xmlns="http://www.w3.org/2000/svg"
    xmlns:sodipodi="http://sodipodi.sourceforge.net/DTD/sodipodi-0.dtd"
    xmlns:inkscape="http://www.inkscape.org/namespaces/inkscape" width="6.3499999mm"
    height="6.3499999mm" viewBox="0 0 6.3499999 6.3499999" version="1.1" id="svg71"
    inkscape:version="1.0.1 (3bc2e813f5, 2020-09-07)" sodipodi:docname="LockedLearnerAlert.svg">
  <defs id="defs65">
    <filter id="filter0_d" x="0" y="0" width="54" height="54" filterUnits="userSpaceOnUse"
        color-interpolation-filters="sRGB">
      <feFlood flood-opacity="0" result="BackgroundImageFix" id="feFlood86" />
      <feColorMatrix in="SourceAlpha" type="matrix"
          values="0 0 0 0 0 0 0 0 0 0 0 0 0 0 0 0 0 0 127 0" id="feColorMatrix88" />
      <feOffset id="feOffset90" />
      <feGaussianBlur stdDeviation="7.5" id="feGaussianBlur92" />
      <feColorMatrix type="matrix" values="0 0 0 0 0 0 0 0 0 0 0 0 0 0 0 0 0 0 0.12 0"
          id="feColorMatrix94" />
      <feBlend mode="normal" in2="BackgroundImageFix" result="effect1_dropShadow" id="feBlend96" />
      <feBlend mode="normal" in="SourceGraphic" in2="effect1_dropShadow" result="shape"
          id="feBlend98" />
    </filter>
  </defs>
  <sodipodi:namedview id="base" pagecolor="#ffffff" bordercolor="#666666" borderopacity="1.0"
      inkscape:pageopacity="0.0" inkscape:pageshadow="2" inkscape:zoom="1.979899"
      inkscape:cx="-3.5550151" inkscape:cy="-43.942211" inkscape:document-units="mm"
      inkscape:current-layer="layer1" inkscape:document-rotation="0" showgrid="false"
      inkscape:window-width="1920" inkscape:window-height="1017" inkscape:window-x="-8"
      inkscape:window-y="-8" inkscape:window-maximized="1" />
  <metadata id="metadata68">
    <rdf:RDF>
      <cc:Work rdf:about="">
        <dc:format>image/svg+xml</dc:format>
        <dc:type rdf:resource="http://purl.org/dc/dcmitype/StillImage" />
        <dc:title></dc:title>
      </cc:Work>
    </rdf:RDF>
  </metadata>
  <g inkscape:label="Layer 1" inkscape:groupmode="layer" id="layer1"
      transform="translate(-167.11074,-154.44826)">
    <g style="fill:none" id="g122"
        transform="matrix(0.26458333,0,0,0.26458333,163.14199,150.47951)">
      <g filter="url(#filter0_d)" id="g75">
        <circle cx="27" cy="27" r="12" fill="#838dea" id="circle73" />
      </g>
      <path fill-rule="evenodd" clip-rule="evenodd"
          d="m 30,25 v 1 h 1 v -1 c 0,-2.2091 -1.7909,-4 -4,-4 -2.2091,0 -4,1.7909 -4,4 v 1 h 1 v -1 c 0,-1.6569 1.3431,-3 3,-3 1.6569,0 3,1.3431 3,3 z"
          fill="#ffffff" id="path77" />
      <path fill-rule="evenodd" clip-rule="evenodd"
          d="m 23,26 c -0.5523,0 -1,0.4477 -1,1 v 5 c 0,0.5523 0.4477,1 1,1 h 8 c 0.5523,0 1,-0.4477 1,-1 v -5 c 0,-0.5523 -0.4477,-1 -1,-1 z m 6.1672,2.7825 c 0.1953,-0.1953 0.1953,-0.5118 0,-0.7071 -0.1952,-0.1953 -0.5118,-0.1953 -0.7071,0 l -1.9348,1.9348 -0.7985,-0.7985 c -0.1953,-0.1953 -0.5119,-0.1953 -0.7071,0 -0.1953,0.1953 -0.1953,0.5118 0,0.7071 l 1.152,1.1521 c 0.1953,0.1952 0.5119,0.1952 0.7071,0 z"
          fill="#ffffff" id="path82" />
      <path
          d="m 29.1672,28.0754 -0.7071,0.7071 v 0 z m 0,0.7071 -0.7071,-0.7071 v 0 z m -0.7071,-0.7071 0.7071,0.7071 v 0 z m -1.9348,1.9348 -0.7071,0.7071 0.7071,0.7071 0.7071,-0.7071 z m -0.7985,-0.7985 -0.7071,0.7071 v 0 z m -0.7071,0.7071 0.7071,-0.7071 v 0 z m 1.152,1.1521 -0.7071,0.7071 v 0 z M 23,27 v 0 -2 c -1.1046,0 -2,0.8954 -2,2 z m 0,5 v -5 h -2 v 5 z m 0,0 v 0 h -2 c 0,1.1046 0.8954,2 2,2 z m 8,0 h -8 v 2 h 8 z m 0,0 v 2 c 1.1046,0 2,-0.8954 2,-2 z m 0,-5 v 5 h 2 v -5 z m 0,0 h 2 c 0,-1.1046 -0.8954,-2 -2,-2 z m -8,0 h 8 v -2 h -8 z m 5.4601,1.7825 c -0.1953,-0.1953 -0.1953,-0.5118 0,-0.7071 l 1.4142,1.4142 c 0.5858,-0.5858 0.5858,-1.5355 0,-2.1213 z m 0.7071,0 c -0.1952,0.1953 -0.5118,0.1953 -0.7071,0 l 1.4142,-1.4142 c -0.5858,-0.5858 -1.5355,-0.5858 -2.1213,0 z m -1.9348,1.9348 1.9348,-1.9348 -1.4142,-1.4142 -1.9348,1.9348 z m -2.2127,-0.7985 0.7985,0.7985 1.4142,-1.4142 -0.7985,-0.7985 z m 0.7071,0 c -0.1953,0.1953 -0.5119,0.1953 -0.7071,0 l 1.4142,-1.4142 c -0.5858,-0.5858 -1.5356,-0.5858 -2.1213,0 z m 0,-0.7071 c 0.1952,0.1953 0.1952,0.5118 0,0.7071 l -1.4142,-1.4142 c -0.5858,0.5858 -0.5858,1.5355 0,2.1213 z m 1.152,1.1521 -1.152,-1.1521 -1.4142,1.4142 1.152,1.1521 z m -0.7071,0 c 0.1953,-0.1953 0.5119,-0.1953 0.7071,0 l -1.4142,1.4142 c 0.5858,0.5858 1.5356,0.5858 2.1213,0 z m 2.2884,-2.2884 -2.2884,2.2884 1.4142,1.4142 2.2884,-2.2884 z"
          fill="#ffffff" mask="url(#path-3-inside-1)" id="path84" />
    </g>
  </g>
</svg>
