<svg width="20" height="23" viewBox="0 0 20 23" fill="none" xmlns="http://www.w3.org/2000/svg">
    <path fill-rule="evenodd" clip-rule="evenodd"
        d="M15.3333 7.66667V9.58333H17.25V7.66667C17.25 3.43248 13.8175 0 9.58332 0C5.34914 0 1.91666 3.43248 1.91666 7.66667V9.58333H3.83332V7.66667C3.83332 4.49103 6.40769 1.91667 9.58332 1.91667C12.759 1.91667 15.3333 4.49103 15.3333 7.66667Z"
        fill="#0094D3" />
    <path fill-rule="evenodd" clip-rule="evenodd"
        d="M1 9.58333C0.447715 9.58333 0 10.031 0 10.5833V22C0 22.5523 0.447714 23 0.999999 23H18.1667C18.719 23 19.1667 22.5523 19.1667 22V10.5833C19.1667 10.031 18.719 9.58333 18.1667 9.58333H1ZM13.7372 14.9165C14.1114 14.5422 14.1114 13.9354 13.7372 13.5612C13.3629 13.1869 12.7561 13.1869 12.3819 13.5612L8.67347 17.2696L7.14298 15.7391C6.76873 15.3648 6.16194 15.3648 5.78769 15.7391C5.41344 16.1134 5.41344 16.7201 5.78769 17.0944L7.99582 19.3025C8.37007 19.6768 8.97686 19.6768 9.35111 19.3025L13.7372 14.9165Z"
        fill="#0094D3" />
</svg>
