<svg width="297" height="92" viewBox="0 0 297 92" fill="none" xmlns="http://www.w3.org/2000/svg">
    <g clip-path="url(#clip0)">
        <path d="M10.5487 37.4639H24.3676V45.5785H0V2.37115H10.5487V37.4639Z" fill="white" />
        <path
            d="M61.6574 30.9301H37.7645C37.9228 33.0905 38.6084 34.6713 39.8215 35.8305C41.0346 36.937 42.5115 37.5166 44.3048 37.5166C46.9419 37.5166 48.788 36.4101 49.7901 34.197H61.0245C60.4443 36.4628 59.3895 38.4651 57.9126 40.3093C56.4358 42.1008 54.537 43.5235 52.2691 44.5773C50.0011 45.5785 47.4694 46.1054 44.674 46.1054C41.2984 46.1054 38.292 45.3677 35.6548 43.945C33.0176 42.5224 30.9606 40.4674 29.4838 37.7801C28.0069 35.0928 27.2685 31.984 27.2685 28.4009C27.2685 24.8179 28.0069 21.7091 29.431 19.0218C30.9078 16.3345 32.9121 14.2795 35.5493 12.8568C38.1865 11.4342 41.1929 10.6965 44.6212 10.6965C47.9441 10.6965 50.8977 11.3815 53.4822 12.8041C56.0666 14.2268 58.0709 16.1764 59.5477 18.7583C61.0245 21.3402 61.7102 24.3437 61.7102 27.8213C61.8157 28.8225 61.7629 29.8236 61.6574 30.9301ZM51.056 25.0813C51.056 23.2898 50.423 21.8145 49.2099 20.7606C47.9968 19.7068 46.4145 19.1799 44.5685 19.1799C42.7752 19.1799 41.2984 19.7068 40.0853 20.7079C38.8721 21.7091 38.1337 23.1844 37.8173 25.0813H51.056Z"
            fill="white" />
        <path
            d="M67.301 19.0218C68.6196 16.3345 70.4656 14.2795 72.7336 12.8568C75.0543 11.4342 77.586 10.6965 80.4342 10.6965C82.8604 10.6965 84.9702 11.1707 86.8162 12.1718C88.6622 13.173 90.0336 14.4376 91.0357 16.071V11.2234H101.584V45.5785H91.0357V40.7308C90.0336 42.3116 88.5567 43.6289 86.7635 44.63C84.9174 45.6312 82.8077 46.1054 80.3815 46.1054C77.586 46.1054 75.0543 45.3677 72.7336 43.945C70.4129 42.4697 68.6196 40.4147 67.301 37.7274C65.9824 35.0401 65.2968 31.9313 65.2968 28.4009C65.2968 24.8179 65.9297 21.7091 67.301 19.0218ZM88.8732 22.1833C87.3964 20.6552 85.6558 19.9175 83.5461 19.9175C81.4363 19.9175 79.6958 20.6552 78.219 22.1833C76.7421 23.6587 76.0565 25.7663 76.0565 28.3482C76.0565 30.9828 76.7949 33.0378 78.219 34.6186C79.6958 36.1466 81.4363 36.937 83.5461 36.937C85.6558 36.937 87.3964 36.1993 88.8732 34.6713C90.35 33.1432 91.0357 31.0882 91.0357 28.4536C91.0357 25.7663 90.2973 23.7114 88.8732 22.1833Z"
            fill="white" />
        <path
            d="M109.127 19.0218C110.445 16.3345 112.291 14.2795 114.559 12.8568C116.88 11.4341 119.412 10.6964 122.26 10.6964C124.528 10.6964 126.585 11.1707 128.431 12.1191C130.277 13.0676 131.754 14.3322 132.861 15.9129V0H143.41V45.5785H132.861V40.6781C131.859 42.3116 130.488 43.6289 128.642 44.63C126.796 45.6311 124.686 46.1054 122.26 46.1054C119.412 46.1054 116.88 45.3677 114.559 43.945C112.239 42.4696 110.445 40.4147 109.127 37.7274C107.808 35.0401 107.123 31.9313 107.123 28.4009C107.123 24.8179 107.808 21.709 109.127 19.0218ZM130.699 22.1833C129.222 20.6552 127.482 19.9175 125.372 19.9175C123.262 19.9175 121.522 20.6552 120.045 22.1833C118.568 23.6586 117.882 25.7663 117.882 28.3482C117.882 30.9828 118.621 33.0378 120.045 34.6185C121.522 36.1466 123.262 36.937 125.372 36.937C127.482 36.937 129.222 36.1993 130.699 34.6712C132.176 33.1432 132.861 31.0882 132.861 28.4536C132.914 25.7663 132.176 23.7113 130.699 22.1833Z"
            fill="white" />
        <path
            d="M205.173 14.701C207.705 17.2829 208.971 20.8659 208.971 25.5028V45.5784H198.475V26.9255C198.475 24.7125 197.895 22.9736 196.734 21.7617C195.574 20.5498 193.939 19.9702 191.882 19.9702C189.825 19.9702 188.19 20.6025 187.029 21.7617C185.869 22.9736 185.289 24.7125 185.289 26.9255V45.5784H174.793V26.9255C174.793 24.7125 174.213 22.9736 173.052 21.7617C171.892 20.5498 170.257 19.9702 168.2 19.9702C166.143 19.9702 164.508 20.6025 163.347 21.7617C162.187 22.9736 161.607 24.7125 161.607 26.9255V45.5784H151.058V11.2233H161.607V15.5441C162.662 14.1214 164.086 12.9622 165.774 12.1191C167.514 11.276 169.466 10.8545 171.628 10.8545C174.213 10.8545 176.533 11.4341 178.538 12.5406C180.595 13.6472 182.177 15.2279 183.337 17.2829C184.55 15.386 186.133 13.8579 188.19 12.646C190.247 11.4341 192.462 10.8545 194.888 10.8545C199.266 10.8545 202.641 12.1191 205.173 14.701Z"
            fill="#587ADE" />
        <path
            d="M248.581 30.9301H224.741C224.899 33.0905 225.585 34.6713 226.798 35.8305C228.011 36.937 229.488 37.5166 231.281 37.5166C233.919 37.5166 235.765 36.4101 236.767 34.197H248.001C247.421 36.4628 246.366 38.4651 244.889 40.3093C243.412 42.1008 241.514 43.5235 239.246 44.5773C236.978 45.5785 234.446 46.1054 231.651 46.1054C228.275 46.1054 225.269 45.3677 222.631 43.945C219.994 42.5224 217.937 40.4674 216.46 37.7801C214.984 35.0928 214.245 31.984 214.245 28.4009C214.245 24.8179 214.984 21.7091 216.408 19.0218C217.884 16.3345 219.889 14.2795 222.526 12.8568C225.163 11.4342 228.169 10.6965 231.598 10.6965C234.921 10.6965 237.874 11.3815 240.459 12.8041C243.043 14.2268 245.047 16.1764 246.524 18.7583C248.001 21.3402 248.687 24.3437 248.687 27.8213C248.792 28.8225 248.74 29.8236 248.581 30.9301ZM237.98 25.0813C237.98 23.2898 237.347 21.8145 236.134 20.7606C234.921 19.7068 233.338 19.1799 231.492 19.1799C229.699 19.1799 228.222 19.7068 227.009 20.7079C225.796 21.7091 225.058 23.1844 224.741 25.0813H237.98Z"
            fill="#587ADE" />
        <path
            d="M276.535 44.9988C276.324 39.835 274.162 35.0401 270.47 31.5097C266.778 28.032 261.978 26.1878 256.968 26.3986L256.757 21.1294C263.191 20.866 269.362 23.1844 274.056 27.6632C278.751 32.142 281.493 38.2016 281.757 44.7354L276.535 44.9988Z"
            fill="#838DEA" />
        <path
            d="M291.726 45.315C291.356 36.0939 287.401 27.5579 280.649 21.2875C273.846 15.0172 265.037 11.803 255.807 12.1718L255.596 6.90265C266.25 6.48111 276.43 10.2222 284.236 17.441C292.042 24.6598 296.578 34.4605 297.053 45.1043L291.726 45.315Z"
            fill="#838DEA" />
        <path
            d="M261.556 44.9462C263.945 44.9462 265.881 43.0117 265.881 40.6254C265.881 38.2391 263.945 36.3047 261.556 36.3047C259.168 36.3047 257.231 38.2391 257.231 40.6254C257.231 43.0117 259.168 44.9462 261.556 44.9462Z"
            fill="#838DEA" />
        <path
            d="M213.665 92H71.8897C62.6596 92 55.1172 84.4651 55.1172 75.244C55.1172 66.0229 62.6596 58.488 71.8897 58.488H213.612C222.842 58.488 230.385 66.0229 230.385 75.244C230.385 84.4651 222.842 92 213.665 92Z"
            fill="url(#paint0_linear)" />
        <path d="M81.8055 78.9324H86.236V81.0927H79.1156V67.6563H81.8055V78.9324Z" fill="white" />
        <path
            d="M97.7869 76.5613H89.9808C90.0336 77.3516 90.2973 77.9313 90.772 78.3528C91.2467 78.7743 91.8268 78.9851 92.5125 78.9851C93.5146 78.9851 94.253 78.5636 94.675 77.7205H97.5759C97.2594 78.7216 96.6793 79.6174 95.7826 80.2497C94.886 80.882 93.8311 81.2508 92.5652 81.2508C91.5631 81.2508 90.6137 81.0401 89.8226 80.5658C89.0314 80.0916 88.3457 79.4593 87.9238 78.6162C87.4491 77.7732 87.2381 76.8247 87.2381 75.7182C87.2381 74.6117 87.4491 73.6632 87.9238 72.8201C88.3985 71.9771 88.9787 71.3448 89.8226 70.8705C90.6137 70.3963 91.5631 70.1855 92.618 70.1855C93.6201 70.1855 94.5168 70.3963 95.3607 70.8178C96.2046 71.2394 96.7848 71.8717 97.2067 72.6621C97.6287 73.4524 97.8924 74.4009 97.8924 75.402C97.8924 75.929 97.8396 76.2451 97.7869 76.5613ZM95.097 74.7697C95.097 74.0847 94.8332 73.5051 94.3585 73.0836C93.8838 72.6621 93.2509 72.4513 92.5652 72.4513C91.8796 72.4513 91.3521 72.6621 90.8775 73.0836C90.4028 73.5051 90.139 74.0321 90.0335 74.7697H95.097Z"
            fill="white" />
        <path
            d="M99.7911 72.8729C100.213 72.0298 100.793 71.3975 101.532 70.9233C102.27 70.4491 103.114 70.2383 104.011 70.2383C104.802 70.2383 105.487 70.3964 106.12 70.7125C106.701 71.0287 107.175 71.4502 107.544 71.9244V70.3964H110.287V81.0401H107.544V79.4594C107.175 79.9863 106.701 80.3551 106.12 80.724C105.487 81.0401 104.802 81.1982 104.011 81.1982C103.114 81.1982 102.27 80.9874 101.532 80.5132C100.793 80.039 100.213 79.4067 99.7911 78.5636C99.3692 77.7205 99.1582 76.7721 99.1582 75.6655C99.1582 74.6644 99.3692 73.6633 99.7911 72.8729ZM107.175 74.0848C106.912 73.6106 106.595 73.2417 106.12 73.031C105.698 72.7675 105.224 72.6621 104.696 72.6621C104.169 72.6621 103.747 72.7675 103.325 73.031C102.903 73.2944 102.534 73.6106 102.27 74.0848C102.006 74.559 101.901 75.0859 101.901 75.7709C101.901 76.4559 102.006 76.9828 102.27 77.4571C102.534 77.9313 102.903 78.3001 103.325 78.5636C103.747 78.8271 104.222 78.9324 104.696 78.9324C105.224 78.9324 105.646 78.8271 106.12 78.5636C106.542 78.3001 106.912 77.9313 107.175 77.5098C107.439 77.0355 107.544 76.4559 107.544 75.8236C107.544 75.0859 107.439 74.559 107.175 74.0848Z"
            fill="white" />
        <path
            d="M116.933 70.7652C117.513 70.449 118.146 70.291 118.832 70.291V73.1363H118.146C117.302 73.1363 116.669 73.3471 116.247 73.7159C115.825 74.1375 115.614 74.8225 115.614 75.7709V81.0928H112.924V70.449H115.614V72.0825C115.931 71.5029 116.405 71.0813 116.933 70.7652Z"
            fill="white" />
        <path
            d="M129.697 71.5028C130.488 72.2932 130.857 73.3997 130.857 74.8751V81.1454H128.167V75.244C128.167 74.4009 127.956 73.7686 127.534 73.2944C127.112 72.8201 126.532 72.6094 125.794 72.6094C125.055 72.6094 124.475 72.8201 124.053 73.2944C123.631 73.7686 123.42 74.4009 123.42 75.244V81.1454H120.73V70.5017H123.42V71.819C123.79 71.3448 124.264 70.9759 124.792 70.7125C125.319 70.449 125.952 70.3436 126.638 70.3436C127.851 70.2909 128.906 70.6598 129.697 71.5028Z"
            fill="white" />
        <path
            d="M133.6 68.7102C133.283 68.394 133.125 68.0252 133.125 67.6036C133.125 67.1294 133.283 66.7606 133.6 66.4971C133.916 66.2337 134.286 66.0229 134.76 66.0229C135.235 66.0229 135.657 66.181 135.921 66.4971C136.184 66.8133 136.395 67.1821 136.395 67.6036C136.395 68.0779 136.237 68.4467 135.921 68.7102C135.604 69.0263 135.235 69.1844 134.76 69.1844C134.286 69.1844 133.916 69.0263 133.6 68.7102ZM136.132 70.449V81.0928H133.442V70.449H136.132Z"
            fill="white" />
        <path
            d="M147.788 71.5028C148.579 72.2932 148.948 73.3997 148.948 74.8751V81.1454H146.258V75.244C146.258 74.4009 146.047 73.7686 145.625 73.2944C145.204 72.8201 144.623 72.6094 143.885 72.6094C143.147 72.6094 142.566 72.8201 142.144 73.2944C141.722 73.7686 141.511 74.4009 141.511 75.244V81.1454H138.822V70.5017H141.511V71.819C141.881 71.3448 142.355 70.9759 142.883 70.7125C143.41 70.449 144.043 70.3436 144.729 70.3436C145.995 70.2909 146.997 70.6598 147.788 71.5028Z"
            fill="white" />
        <path
            d="M157.809 70.7125C158.389 71.0286 158.864 71.4502 159.233 71.9244V70.3963H161.976V81.1455C161.976 82.1466 161.765 82.9897 161.396 83.7801C161.027 84.5704 160.394 85.15 159.603 85.6243C158.811 86.0985 157.862 86.3093 156.702 86.3093C155.172 86.3093 153.959 85.9404 152.957 85.2554C152.007 84.5704 151.427 83.5693 151.322 82.3574H154.012C154.17 82.8316 154.434 83.2531 154.908 83.5166C155.383 83.7801 155.963 83.9381 156.596 83.9381C157.387 83.9381 158.02 83.7274 158.495 83.2531C158.97 82.7789 159.233 82.0939 159.233 81.1455V79.512C158.864 80.0389 158.389 80.4078 157.809 80.7766C157.176 81.0928 156.491 81.3035 155.7 81.3035C154.803 81.3035 153.959 81.0928 153.221 80.6185C152.482 80.1443 151.902 79.512 151.48 78.6689C151.058 77.8259 150.847 76.8774 150.847 75.7709C150.847 74.7171 151.058 73.7159 151.48 72.9255C151.902 72.0825 152.482 71.4502 153.221 70.9759C153.959 70.5017 154.803 70.2909 155.7 70.2909C156.491 70.2382 157.176 70.3963 157.809 70.7125ZM158.864 74.0848C158.6 73.6105 158.284 73.2417 157.809 73.0309C157.387 72.7675 156.913 72.6621 156.385 72.6621C155.858 72.6621 155.436 72.7675 155.014 73.0309C154.592 73.2944 154.223 73.6105 153.959 74.0848C153.695 74.559 153.59 75.0859 153.59 75.7709C153.59 76.4559 153.695 76.9828 153.959 77.457C154.223 77.9313 154.592 78.3001 155.014 78.5636C155.436 78.827 155.91 78.9324 156.385 78.9324C156.913 78.9324 157.335 78.827 157.809 78.5636C158.231 78.3001 158.6 77.9313 158.864 77.5097C159.128 77.0355 159.233 76.4559 159.233 75.8236C159.233 75.0859 159.075 74.559 158.864 74.0848Z"
            fill="white" />
        <path
            d="M177.43 78.5108H172.05L171.153 81.0927H168.305L173.158 67.6563H176.322L181.175 81.0927H178.327L177.43 78.5108ZM176.692 76.4032L174.74 70.7651L172.789 76.4032H176.692Z"
            fill="white" />
        <path
            d="M187.082 70.7652C187.715 70.449 188.401 70.291 189.192 70.291C190.088 70.291 190.932 70.5017 191.671 70.976C192.409 71.4502 192.989 72.0825 193.411 72.8729C193.833 73.6632 194.044 74.6644 194.044 75.7709C194.044 76.8774 193.833 77.8259 193.411 78.669C192.989 79.512 192.409 80.1443 191.671 80.6186C190.932 81.0928 190.088 81.3036 189.192 81.3036C188.401 81.3036 187.715 81.1455 187.135 80.8293C186.555 80.5132 186.027 80.0916 185.658 79.6174V86.2039H182.968V70.449H185.658V71.9771C186.027 71.5029 186.502 71.0813 187.082 70.7652ZM190.932 74.0321C190.669 73.5579 190.299 73.189 189.877 72.9782C189.456 72.7148 188.981 72.6094 188.506 72.6094C188.031 72.6094 187.557 72.7148 187.135 72.9782C186.713 73.2417 186.344 73.6105 186.08 74.0848C185.816 74.559 185.711 75.1386 185.711 75.7709C185.711 76.4032 185.816 76.9828 186.08 77.4571C186.344 77.9313 186.713 78.3001 187.135 78.5636C187.557 78.827 188.031 78.9324 188.506 78.9324C189.034 78.9324 189.456 78.827 189.877 78.5636C190.299 78.3001 190.669 77.9313 190.932 77.4571C191.196 76.9828 191.302 76.4032 191.302 75.7709C191.302 75.0859 191.196 74.5063 190.932 74.0321Z"
            fill="white" />
        <path
            d="M200.162 70.7652C200.795 70.449 201.481 70.291 202.272 70.291C203.169 70.291 204.013 70.5017 204.751 70.976C205.49 71.4502 206.07 72.0825 206.492 72.8729C206.914 73.6632 207.125 74.6644 207.125 75.7709C207.125 76.8774 206.914 77.8259 206.492 78.669C206.07 79.512 205.49 80.1443 204.751 80.6186C204.013 81.0928 203.169 81.3036 202.272 81.3036C201.481 81.3036 200.795 81.1455 200.215 80.8293C199.635 80.5132 199.108 80.0916 198.738 79.6174V86.2039H196.048V70.449H198.738V71.9771C199.108 71.5029 199.582 71.0813 200.162 70.7652ZM204.013 74.0321C203.749 73.5579 203.38 73.189 202.958 72.9782C202.536 72.7148 202.061 72.6094 201.587 72.6094C201.112 72.6094 200.637 72.7148 200.215 72.9782C199.793 73.2417 199.424 73.6105 199.16 74.0848C198.897 74.559 198.791 75.1386 198.791 75.7709C198.791 76.4032 198.897 76.9828 199.16 77.4571C199.424 77.9313 199.793 78.3001 200.215 78.5636C200.637 78.827 201.112 78.9324 201.587 78.9324C202.114 78.9324 202.536 78.827 202.958 78.5636C203.38 78.3001 203.749 77.9313 204.013 77.4571C204.276 76.9828 204.382 76.4032 204.382 75.7709C204.382 75.0859 204.276 74.5063 204.013 74.0321Z"
            fill="white" />
    </g>
    <defs>
        <linearGradient id="paint0_linear" x1="142.771" y1="57.3756" x2="142.771" y2="91.816"
            gradientUnits="userSpaceOnUse">
            <stop stop-color="#7F85E9" />
            <stop offset="1" stop-color="#4666C1" />
        </linearGradient>
        <clipPath id="clip0">
            <rect width="297" height="92" fill="white" />
        </clipPath>
    </defs>
</svg>
