<svg width="22" height="27" viewBox="0 0 22 27" fill="none" xmlns="http://www.w3.org/2000/svg">
    <path fill-rule="evenodd" clip-rule="evenodd"
        d="M11.4296 27C9.23347 25.6305 7.76471 23.1387 7.76471 20.2919C7.76471 16.8054 9.96767 13.8514 13.0116 12.8394C14.4008 11.9538 15.3269 10.3652 15.3269 8.55278C15.3269 5.77421 13.1503 3.52173 10.4655 3.52173C7.78061 3.52173 5.6041 5.77421 5.6041 8.55278C5.6041 10.3397 6.50423 11.909 7.86083 12.8015C5.29321 13.6636 3.44348 16.0896 3.44348 18.9477V27H11.4296Z"
        fill="#0094D3" />
    <path fill-rule="evenodd" clip-rule="evenodd"
        d="M15.3269 27C18.9067 27 21.8087 23.9967 21.8087 20.2919C21.8087 16.5872 18.9067 13.5838 15.3269 13.5838C11.7471 13.5838 8.84503 16.5872 8.84503 20.2919C8.84503 23.9967 11.7471 27 15.3269 27ZM18.6469 19.3229C18.9778 18.988 18.9778 18.445 18.6469 18.1101C18.316 17.7752 17.7795 17.7752 17.4486 18.1101L14.1696 21.4287L12.8164 20.0591C12.4854 19.7242 11.9489 19.7242 11.618 20.0591C11.2871 20.394 11.2871 20.937 11.618 21.2719L13.5704 23.2479C13.9014 23.5828 14.4379 23.5828 14.7688 23.2479L18.6469 19.3229Z"
        fill="#0094D3" />
</svg>
