<svg width="67" height="67" viewBox="0 0 67 67" fill="none" xmlns="http://www.w3.org/2000/svg">
    <path
        d="M49.0268 17.4043C44.8845 21.8991 42.681 27.7157 42.8128 33.7524C42.9887 39.7451 45.456 45.297 49.8181 49.3066L45.5876 53.8895C39.9918 48.7343 36.7756 41.6402 36.5998 33.9731C36.424 26.306 39.2005 18.9471 44.4444 13.2626L49.0268 17.4043Z"
        fill="#838DEA" />
    <path
        d="M36.6016 4.45022C29.1984 12.4703 25.3642 22.9137 25.7601 33.7975C26.2001 44.7253 30.8703 54.7717 38.8895 62.1739L34.6591 66.7568C25.4061 58.209 20.031 46.5764 19.5471 34.0182C19.0631 21.46 23.4702 9.47431 31.9751 0.176293L36.6016 4.45022Z"
        fill="#838DEA" />
</svg>
