<svg width="67" height="67" viewBox="0 0 67 67" fill="none" xmlns="http://www.w3.org/2000/svg">
    <path
        d="M17.7568 49.3794C21.8991 44.8846 24.1026 39.068 23.9708 33.0313C23.7949 27.0386 21.3276 21.4867 16.9655 17.4771L21.196 12.8942C26.7918 18.0494 30.008 25.1435 30.1838 32.8106C30.3596 40.4777 27.5831 47.8366 22.3392 53.5211L17.7568 49.3794Z"
        fill="#838DEA" />
    <path
        d="M30.182 62.3335C37.5853 54.3134 41.4195 43.87 41.0235 32.9862C40.5835 22.0583 35.9134 12.012 27.8942 4.60976L32.1246 0.0268495C41.3775 8.57471 46.7526 20.2073 47.2366 32.7655C47.7205 45.3237 43.3134 57.3094 34.8085 66.6074L30.182 62.3335Z"
        fill="#838DEA" />
</svg>
