<svg width="26" height="26" viewBox="0 0 26 26" fill="none" xmlns="http://www.w3.org/2000/svg">
    <path
        d="M13.2661 25C19.7466 25 25 19.7466 25 13.2661C25 6.78571 19.7466 1.53229 13.2661 1.53229C6.78571 1.53229 1.53229 6.78571 1.53229 13.2661C1.53229 19.7466 6.78571 25 13.2661 25Z"
        stroke="#838DEA" stroke-width="2" stroke-miterlimit="10" stroke-linecap="round" />
    <path d="M13.073 1.62888V24.8551" stroke="#838DEA" stroke-width="2" stroke-miterlimit="10"
        stroke-linecap="round" />
    <path d="M1.62885 13.411H24.8551" stroke="#838DEA" stroke-width="2" stroke-miterlimit="10"
        stroke-linecap="round" />
    <path
        d="M13.073 1.62888C13.073 1.62888 19.1572 5.7816 19.1572 13.411C19.1572 21.0404 13.073 24.8551 13.073 24.8551"
        stroke="#838DEA" stroke-width="2" stroke-miterlimit="10" stroke-linecap="round" />
    <path
        d="M12.9764 1.62888C12.9764 1.62888 6.89218 5.7816 6.89218 13.411C6.89218 21.0404 12.9764 24.8551 12.9764 24.8551"
        stroke="#838DEA" stroke-width="2" stroke-miterlimit="10" stroke-linecap="round" />
    <path
        d="M4.71927 21.2819C4.71927 21.2819 7.18193 18.6743 13.073 18.6743C18.9641 18.6743 21.7647 21.2819 21.7647 21.2819"
        stroke="#838DEA" stroke-width="2" stroke-miterlimit="10" stroke-linecap="round" />
    <path
        d="M4.71927 5.39529C4.71927 5.39529 7.18193 8.00282 13.073 8.00282C18.9641 8.00282 21.7647 5.39529 21.7647 5.39529"
        stroke="#838DEA" stroke-width="2" stroke-miterlimit="10" stroke-linecap="round" />
</svg>
