<svg width="30" height="30" viewBox="0 0 30 30" fill="none" xmlns="http://www.w3.org/2000/svg">
    <g clip-path="url(#clip0)">
        <path fill-rule="evenodd" clip-rule="evenodd"
            d="M15.0294 1.76321C7.70267 1.76321 1.76321 7.70266 1.76321 15.0294C1.76321 22.356 7.70267 28.2955 15.0294 28.2955C22.3561 28.2955 28.2955 22.356 28.2955 15.0294C28.2955 7.70266 22.3561 1.76321 15.0294 1.76321ZM-0.236786 15.0294C-0.236786 6.59809 6.5981 -0.236792 15.0294 -0.236792C23.4606 -0.236792 30.2955 6.59809 30.2955 15.0294C30.2955 23.4606 23.4606 30.2955 15.0294 30.2955C6.5981 30.2955 -0.236786 23.4606 -0.236786 15.0294Z"
            fill="#0094D3" />
        <path fill-rule="evenodd" clip-rule="evenodd"
            d="M14.7945 -0.119373C15.3468 -0.119373 15.7945 0.328342 15.7945 0.880627V29.1194C15.7945 29.6717 15.3468 30.1194 14.7945 30.1194C14.2422 30.1194 13.7945 29.6717 13.7945 29.1194V0.880627C13.7945 0.328342 14.2422 -0.119373 14.7945 -0.119373Z"
            fill="#0094D3" />
        <path fill-rule="evenodd" clip-rule="evenodd"
            d="M-0.119385 15.2055C-0.119385 14.6532 0.32833 14.2055 0.880615 14.2055H29.1194C29.6716 14.2055 30.1194 14.6532 30.1194 15.2055C30.1194 15.7578 29.6716 16.2055 29.1194 16.2055H0.880615C0.32833 16.2055 -0.119385 15.7578 -0.119385 15.2055Z"
            fill="#0094D3" />
        <path fill-rule="evenodd" clip-rule="evenodd"
            d="M13.9686 0.316882C14.2799 -0.139277 14.9021 -0.256671 15.3583 0.0546759L14.7945 0.880626C15.3583 0.0546759 15.3579 0.0544013 15.3583 0.0546759L15.36 0.0558526L15.3624 0.0574989L15.3692 0.0621992L15.3907 0.0772247C15.4085 0.0897384 15.4332 0.107247 15.4642 0.129727C15.5263 0.174681 15.6139 0.239557 15.7235 0.324167C15.9426 0.493321 16.2499 0.741765 16.6158 1.06803C17.3468 1.71975 18.3174 2.68673 19.2879 3.95766C21.2286 6.49896 23.1918 10.288 23.1918 15.2055C23.1918 20.1267 21.2256 23.8185 19.275 26.2644C18.3006 27.4863 17.326 28.4031 16.5917 29.017C16.2241 29.3243 15.9153 29.5568 15.6948 29.7148C15.5846 29.7939 15.4962 29.8543 15.4335 29.8963C15.4022 29.9172 15.3772 29.9336 15.3591 29.9453L15.3371 29.9594L15.3301 29.9639L15.3266 29.9661C15.3262 29.9664 15.3258 29.9666 14.8234 29.1654L15.3266 29.9661C14.8587 30.2595 14.2407 30.1185 13.9473 29.6506C13.6543 29.1832 13.7951 28.5669 14.2617 28.2731C14.2618 28.2731 14.2617 28.2732 14.2617 28.2731C14.262 28.273 14.2624 28.2727 14.2627 28.2725M14.2627 28.2725L14.2724 28.2663C14.2823 28.2599 14.2989 28.249 14.3217 28.2338C14.3673 28.2033 14.4379 28.155 14.5299 28.0891C14.714 27.9572 14.9831 27.755 15.309 27.4825C15.9617 26.9369 16.8365 26.1145 17.7113 25.0174C19.4594 22.8254 21.1918 19.5601 21.1918 15.2055C21.1918 10.847 19.4564 7.47364 17.6984 5.17149C16.8196 4.0207 15.9409 3.14571 15.2849 2.56088C14.9574 2.26887 14.6867 2.0504 14.5012 1.90721C14.4086 1.83565 14.3373 1.78299 14.291 1.74946C14.2679 1.73269 14.251 1.72072 14.2408 1.71356L14.2308 1.70658"
            fill="#0094D3" />
        <path fill-rule="evenodd" clip-rule="evenodd"
            d="M15.2422 1.70568C15.2417 1.70598 15.2413 1.70628 15.2409 1.70658L14.6771 0.880627C15.2409 1.70658 15.2419 1.70588 15.2422 1.70568C15.2417 1.70598 15.2413 1.70628 15.2409 1.70658L15.2309 1.71356C15.2207 1.72072 15.2038 1.73269 15.1806 1.74946C15.1344 1.78299 15.0631 1.83565 14.9704 1.90721C14.7849 2.05041 14.5143 2.26888 14.1868 2.56089C13.5308 3.14571 12.652 4.02071 11.7732 5.17149C10.0152 7.47364 8.27985 10.847 8.27985 15.2055C8.27985 19.5601 10.0122 22.8254 11.7603 25.0174C12.6352 26.1145 13.5099 26.9369 14.1627 27.4825C14.4886 27.755 14.7577 27.9572 14.9417 28.0891C15.0337 28.155 15.1043 28.2033 15.1499 28.2338C15.1728 28.2491 15.1893 28.2599 15.1992 28.2663L15.2083 28.2721C15.6757 28.5657 15.8176 29.1829 15.5243 29.6506C15.231 30.1185 14.6138 30.26 14.1459 29.9666L14.6483 29.1654C14.1459 29.9666 14.1463 29.9669 14.1459 29.9666L14.1416 29.9639L14.1345 29.9594L14.1125 29.9453C14.0944 29.9336 14.0695 29.9172 14.0381 29.8963C13.9754 29.8543 13.8871 29.7939 13.7768 29.7148C13.5563 29.5568 13.2475 29.3243 12.8799 29.017C12.1456 28.4031 11.1711 27.4863 10.1966 26.2644C8.24609 23.8185 6.27985 20.1268 6.27985 15.2055C6.27985 10.288 8.24308 6.49896 10.1837 3.95767C11.1542 2.68673 12.1248 1.71975 12.8558 1.06803C13.2218 0.741767 13.529 0.493322 13.7481 0.324168C13.8577 0.239558 13.9454 0.174682 14.0074 0.129728C14.0385 0.107248 14.0631 0.0897396 14.0809 0.0772259L14.1024 0.0622004L14.1092 0.0575001L14.1116 0.0558538L14.1126 0.0552068C14.113 0.0549322 14.1134 0.0546771 14.6771 0.880627"
            fill="#0094D3" />
        <path fill-rule="evenodd" clip-rule="evenodd"
            d="M5.36422 25.4624C5.36305 25.4636 5.36188 25.4649 5.3607 25.4661L5.36068 25.4661C5.36028 25.4665 5.36011 25.4667 5.36017 25.4666C5.36021 25.4666 5.36039 25.4664 5.3607 25.4661L5.36231 25.4644L5.36352 25.4631L5.36422 25.4624ZM24.6829 25.509C24.6833 25.5094 24.6837 25.5097 24.6839 25.5099C25.0883 25.8831 25.7186 25.8595 26.0939 25.4564C26.4703 25.0522 26.4477 24.4194 26.0435 24.0431L25.4051 24.7287C26.0434 24.043 26.0431 24.0427 26.0427 24.0423L26.0418 24.0415L26.0398 24.0397L26.0349 24.0352L26.0212 24.0227C26.0104 24.013 25.9961 24.0003 25.9784 23.9849C25.943 23.9541 25.8939 23.9124 25.8309 23.8614C25.7049 23.7595 25.5234 23.6202 25.2857 23.4563C24.8102 23.1285 24.1093 22.7021 23.1774 22.2792C21.3104 21.432 18.5282 20.6047 14.7945 20.6047C11.06 20.6047 8.37266 21.4325 6.59604 22.2891C5.70991 22.7163 5.05547 23.1482 4.61415 23.4823C4.39354 23.6493 4.22625 23.7918 4.10989 23.897C4.0517 23.9496 4.00624 23.993 3.97319 24.0254C3.95666 24.0416 3.94324 24.055 3.93288 24.0656L3.91964 24.0792L3.91473 24.0844L3.9127 24.0865L3.9118 24.0874C3.91137 24.0879 3.91096 24.0883 4.62308 24.7609L3.91096 24.0883C3.53175 24.4898 3.54983 25.1228 3.95135 25.502C4.35136 25.8798 4.98102 25.8632 5.3607 25.4661L5.3735 25.4533C5.38781 25.4393 5.41367 25.4145 5.45134 25.3804C5.5267 25.3123 5.64928 25.2071 5.82129 25.0769C6.16519 24.8166 6.70694 24.4559 7.46464 24.0906C8.9757 23.362 11.3667 22.6047 14.7945 22.6047C18.2232 22.6047 20.7248 23.3625 22.351 24.1005C23.1657 24.4701 23.7637 24.8363 24.1505 25.1029C24.3439 25.2362 24.4844 25.3446 24.5726 25.416C24.6167 25.4517 24.6477 25.4781 24.6657 25.4938L24.6829 25.509ZM24.6829 25.509L24.6823 25.5084ZM24.6823 25.5084C24.682 25.5081 24.6816 25.5078 24.6813 25.5075C24.681 25.5072 24.6806 25.5068 25.362 24.775L24.6806 25.5068C24.6809 25.5071 24.6811 25.5073 24.6813 25.5075L24.682 25.5081L24.6823 25.5084Z"
            fill="#0094D3" />
        <path fill-rule="evenodd" clip-rule="evenodd"
            d="M26.0939 4.77846C26.4703 5.18268 26.4477 5.81544 26.0435 6.19178L25.4029 5.50374C26.0434 6.19179 26.0431 6.19214 26.0427 6.19251L26.0418 6.19332L26.0398 6.19515L26.0349 6.19967L26.0212 6.21209C26.0104 6.22185 25.9961 6.23452 25.9784 6.24992C25.943 6.28071 25.8939 6.32239 25.8309 6.37339C25.7049 6.47537 25.5234 6.61467 25.2857 6.77856C24.8102 7.10634 24.1093 7.53276 23.1774 7.95564C21.3104 8.80284 18.5282 9.63014 14.7945 9.63014C11.06 9.63014 8.37266 8.80236 6.59604 7.94578C5.70991 7.51853 5.05548 7.08663 4.61415 6.75254C4.39354 6.58554 4.22625 6.44304 4.10989 6.33781C4.0517 6.28519 4.00624 6.24188 3.97319 6.20947C3.95666 6.19327 3.94324 6.17979 3.93288 6.16923L3.91964 6.1556L3.91473 6.15048L3.9127 6.14835L3.9118 6.14739C3.91137 6.14694 3.91096 6.14651 4.63797 5.45988L3.91096 6.14651C3.53175 5.74499 3.54983 5.11208 3.95135 4.73287C4.35136 4.35508 4.98102 4.37161 5.3607 4.76875L5.3735 4.7815C5.38781 4.79553 5.41367 4.82033 5.45134 4.8544C5.5267 4.92255 5.64928 5.02771 5.82129 5.15792C6.16519 5.41826 6.70694 5.77892 7.46464 6.14424C8.9757 6.87279 11.3667 7.63014 14.7945 7.63014C18.2232 7.63014 20.7248 6.8723 22.351 6.13438C23.1657 5.76469 23.7637 5.39855 24.1505 5.13191C24.3439 4.99859 24.4844 4.89021 24.5726 4.81882C24.6167 4.78313 24.6477 4.7567 24.6657 4.74105L24.6829 4.72586L24.682 4.72674L24.6813 4.72733C25.0856 4.35168 25.7178 4.37449 26.0939 4.77846ZM24.6813 4.72733C24.6811 4.72755 24.6809 4.72777 24.6806 4.72799L25.362 5.45988C24.6806 4.72799 24.681 4.72765 24.6813 4.72733Z"
            fill="#0094D3" />
    </g>
    <defs>
        <clipPath id="clip0">
            <rect width="30" height="30" fill="white" />
        </clipPath>
    </defs>
</svg>
