<svg width="79" height="73" viewBox="0 0 79 73" fill="none" xmlns="http://www.w3.org/2000/svg">
    <g clip-path="url(#clip0)">
        <path
            d="M39.8 72.3C39.4 62.5 35.3 53.4 28.3 46.7C21.3 40.1 12.2 36.6 2.69999 37L2.29999 27C14.5 26.5 26.2 30.9 35.1 39.4C44 47.9 49.2 59.4 49.7 71.8L39.8 72.3Z"
            fill="#838DEA" />
        <path
            d="M68.6 73C67.9 55.5 60.4 39.3 47.6 27.4C34.7 15.5 17.9 9.39999 0.4 10.1L0 0.0999918C20.2 -0.700008 39.5 6.39999 54.3 20.1C69.1 33.8 77.7 52.4 78.6 72.6L68.6 73Z"
            fill="#838DEA" />
        <path
            d="M11.4 72.3C15.9287 72.3 19.6 68.6288 19.6 64.1C19.6 59.5713 15.9287 55.9 11.4 55.9C6.87128 55.9 3.20001 59.5713 3.20001 64.1C3.20001 68.6288 6.87128 72.3 11.4 72.3Z"
            fill="#838DEA" />
    </g>
    <defs>
        <clipPath id="clip0">
            <rect width="78.6" height="73" fill="white" />
        </clipPath>
    </defs>
</svg>
