<svg width="24" height="24" viewBox="0 0 24 24" fill="none" xmlns="http://www.w3.org/2000/svg">
    <circle cx="12" cy="12" r="12" fill="#FDA627" />
    <path
        d="M12.8184 5.22L12.5304 13.914H10.4064L10.1004 5.22H12.8184ZM11.5224 18.126C11.0664 18.126 10.6884 17.988 10.3884 17.712C10.1004 17.424 9.95636 17.07 9.95636 16.65C9.95636 16.23 10.1004 15.882 10.3884 15.606C10.6884 15.318 11.0664 15.174 11.5224 15.174C11.9664 15.174 12.3324 15.318 12.6204 15.606C12.9084 15.882 13.0524 16.23 13.0524 16.65C13.0524 17.07 12.9084 17.424 12.6204 17.712C12.3324 17.988 11.9664 18.126 11.5224 18.126Z"
        fill="white" />
</svg>
