<svg width="54" height="54" viewBox="0 0 54 54" fill="none" xmlns="http://www.w3.org/2000/svg">
    <g filter="url(#filter0_d)">
        <circle cx="27" cy="27" r="12" fill="#FDA627" />
    </g>
    <path
        d="M26.067 19.75C26.2594 19.4167 26.7406 19.4167 26.933 19.75L33.4282 31C33.6207 31.3333 33.3801 31.75 32.9952 31.75H20.0048C19.6199 31.75 19.3793 31.3333 19.5718 31L26.067 19.75Z"
        stroke="white" />
    <path
        d="M27.2324 22.9L27.0724 27.73H25.8924L25.7224 22.9H27.2324ZM26.5124 30.07C26.2591 30.07 26.0491 29.9933 25.8824 29.84C25.7224 29.68 25.6424 29.4833 25.6424 29.25C25.6424 29.0167 25.7224 28.8233 25.8824 28.67C26.0491 28.51 26.2591 28.43 26.5124 28.43C26.7591 28.43 26.9624 28.51 27.1224 28.67C27.2824 28.8233 27.3624 29.0167 27.3624 29.25C27.3624 29.4833 27.2824 29.68 27.1224 29.84C26.9624 29.9933 26.7591 30.07 26.5124 30.07Z"
        fill="white" />
    <defs>
        <filter id="filter0_d" x="0" y="0" width="54" height="54" filterUnits="userSpaceOnUse"
            color-interpolation-filters="sRGB">
            <feFlood flood-opacity="0" result="BackgroundImageFix" />
            <feColorMatrix in="SourceAlpha" type="matrix"
                values="0 0 0 0 0 0 0 0 0 0 0 0 0 0 0 0 0 0 127 0" />
            <feOffset />
            <feGaussianBlur stdDeviation="7.5" />
            <feColorMatrix type="matrix" values="0 0 0 0 0 0 0 0 0 0 0 0 0 0 0 0 0 0 0.12 0" />
            <feBlend mode="normal" in2="BackgroundImageFix" result="effect1_dropShadow" />
            <feBlend mode="normal" in="SourceGraphic" in2="effect1_dropShadow" result="shape" />
        </filter>
    </defs>
</svg>
