<svg width="16" height="20" viewBox="0 0 16 20" fill="none" xmlns="http://www.w3.org/2000/svg">
    <path fill-rule="evenodd" clip-rule="evenodd"
        d="M6.95756 20C5.04431 18.8334 3.76471 16.7108 3.76471 14.2857C3.76471 11.3157 5.68396 8.79937 8.3359 7.93729C9.54614 7.18288 10.3529 5.82964 10.3529 4.28571C10.3529 1.91878 8.45673 0 6.11765 0C3.77856 0 1.88235 1.91878 1.88235 4.28571C1.88235 5.81072 2.6695 7.14969 3.8551 7.90929C1.6147 8.65842 0 10.7737 0 13.2661V20H6.95756Z"
        fill="#239EF2" />
    <path fill-rule="evenodd" clip-rule="evenodd"
        d="M10.353 20C13.4717 20 16 17.4416 16 14.2857C16 11.1298 13.4717 8.57143 10.353 8.57143C7.23418 8.57143 4.7059 11.1298 4.7059 14.2857C4.7059 17.4416 7.23418 20 10.353 20ZM13.5799 13.4694H7.12608V15.102H13.5799V13.4694Z"
        fill="#239EF2" />
</svg>
