<svg width="22" height="20" viewBox="0 0 22 20" fill="none" xmlns="http://www.w3.org/2000/svg">
    <path
        d="M12.0912 1.41421C12.8722 0.633163 14.1385 0.633165 14.9196 1.41421L19.8094 6.30401C20.5904 7.08506 20.5904 8.35138 19.8094 9.13243L13.5054 15.4364L5.78715 7.71822L12.0912 1.41421Z"
        fill="#1599F3" />
    <path fill-rule="evenodd" clip-rule="evenodd"
        d="M6.88979 9.44403L11.7796 14.3338L9.62978 16.4836H12.4582L13.1938 15.748L14.608 14.3338L13.1938 12.9196L8.30401 8.02981L6.88979 6.6156L5.47558 8.02981L0.585787 12.9196C-0.195261 13.7007 -0.195263 14.967 0.585786 15.748L1.32138 16.4836H4.14981L2 14.3338L6.88979 9.44403Z"
        fill="#1599F3" />
    <path d="M0.0480957 19H18.0481" stroke="#1599F3" stroke-width="2" />
</svg>
