<svg width="22" height="22" viewBox="0 0 22 22" fill="none" xmlns="http://www.w3.org/2000/svg">
    <circle cx="11" cy="11" r="11" fill="#1599F3" />
    <path
        d="M4.17725 11.176C4.17725 10.488 4.31725 9.888 4.59725 9.376C4.87725 8.856 5.26525 8.456 5.76125 8.176C6.25725 7.888 6.82525 7.744 7.46525 7.744C8.28925 7.744 8.96925 7.952 9.50525 8.368C10.0493 8.776 10.4133 9.352 10.5973 10.096H8.78525C8.68925 9.808 8.52525 9.584 8.29325 9.424C8.06925 9.256 7.78925 9.172 7.45325 9.172C6.97325 9.172 6.59325 9.348 6.31325 9.7C6.03325 10.044 5.89325 10.536 5.89325 11.176C5.89325 11.808 6.03325 12.3 6.31325 12.652C6.59325 12.996 6.97325 13.168 7.45325 13.168C8.13325 13.168 8.57725 12.864 8.78525 12.256H10.5973C10.4133 12.976 10.0493 13.548 9.50525 13.972C8.96125 14.396 8.28125 14.608 7.46525 14.608C6.82525 14.608 6.25725 14.468 5.76125 14.188C5.26525 13.9 4.87725 13.5 4.59725 12.988C4.31725 12.468 4.17725 11.864 4.17725 11.176ZM11.396 11.176C11.396 10.488 11.536 9.888 11.816 9.376C12.096 8.856 12.484 8.456 12.98 8.176C13.476 7.888 14.044 7.744 14.684 7.744C15.508 7.744 16.188 7.952 16.724 8.368C17.268 8.776 17.632 9.352 17.816 10.096H16.004C15.908 9.808 15.744 9.584 15.512 9.424C15.288 9.256 15.008 9.172 14.672 9.172C14.192 9.172 13.812 9.348 13.532 9.7C13.252 10.044 13.112 10.536 13.112 11.176C13.112 11.808 13.252 12.3 13.532 12.652C13.812 12.996 14.192 13.168 14.672 13.168C15.352 13.168 15.796 12.864 16.004 12.256H17.816C17.632 12.976 17.268 13.548 16.724 13.972C16.18 14.396 15.5 14.608 14.684 14.608C14.044 14.608 13.476 14.468 12.98 14.188C12.484 13.9 12.096 13.5 11.816 12.988C11.536 12.468 11.396 11.864 11.396 11.176Z"
        fill="white" />
</svg>
