<svg width="70" height="83" viewBox="0 0 70 83" fill="none" xmlns="http://www.w3.org/2000/svg">
    <ellipse cx="36.4228" cy="12.4454" rx="12.3066" ry="12.4454" fill="#8A62F1" />
    <path
        d="M19.1936 42.12C19.1936 32.6045 26.9074 24.8907 36.4228 24.8907C45.9383 24.8907 53.652 32.6045 53.652 42.12V61.3972H19.1936V42.12Z"
        fill="#8A62F1" />
    <ellipse cx="16.9355" cy="34.6781" rx="12.4194" ry="11.9384" fill="#239EF2" />
    <path
        d="M0 63.5519C0 54.1987 7.58227 46.6165 16.9355 46.6165C26.2887 46.6165 33.871 54.1987 33.871 63.5519V83H0V63.5519Z"
        fill="#239EF2" />
    <ellipse cx="53.0646" cy="34.6781" rx="12.4194" ry="11.9384" fill="#FDA627" />
    <path
        d="M36.1292 63.5519C36.1292 54.1987 43.7114 46.6165 53.0646 46.6165C62.4178 46.6165 70.0001 54.1987 70.0001 63.5519V83H36.1292V63.5519Z"
        fill="#FDA627" />
    <ellipse cx="36.129" cy="58.1487" rx="13.5484" ry="13.8063" fill="white" />
    <path fill-rule="evenodd" clip-rule="evenodd"
        d="M43.0687 53.6583C43.7604 54.3476 43.7604 55.4651 43.0687 56.1544L34.9626 64.2326C34.2709 64.9219 33.1495 64.9219 32.4578 64.2326L28.3768 60.1657C27.6852 59.4764 27.6852 58.3588 28.3768 57.6695C29.0685 56.9802 30.19 56.9802 30.8816 57.6695L33.7102 60.4884L40.5639 53.6583C41.2556 52.969 42.377 52.969 43.0687 53.6583Z"
        fill="#5E81FF" />
</svg>
