<svg width="107" height="81" viewBox="0 0 107 81" fill="none" xmlns="http://www.w3.org/2000/svg">
    <ellipse cx="23.1477" cy="16.4189" rx="16.5341" ry="16.4189" fill="#8A62F1" />
    <path
        d="M0 55.9856C0 43.2014 10.3636 32.8378 23.1477 32.8378C35.9319 32.8378 46.2955 43.2014 46.2955 55.9855V81H0V55.9856Z"
        fill="#8A62F1" />
    <path
        d="M58.3447 17.4626L71.6474 11.332L77.1996 14.7228L78.6577 22.0686L69.8332 26.2678C68.8409 26.7377 67.7585 27.0028 66.6546 27.0463C65.5508 27.0897 64.4496 26.9106 63.4212 26.5203C62.3927 26.13 61.4594 25.537 60.6806 24.7791C59.9018 24.0211 59.2944 23.1147 58.8971 22.1175C58.4288 20.9348 57.997 19.8633 57.6857 19.1091C57.5575 18.8052 57.5543 18.4653 57.6769 18.1591C57.7994 17.853 58.0383 17.6038 58.3447 17.4626Z"
        fill="url(#paint0_linear)" />
    <path
        d="M84.667 40.1295L71.2072 45.9129L65.7532 42.3864L64.4969 35.0053L73.4365 31.0448C74.4417 30.5999 75.5317 30.3622 76.6371 30.347C77.7424 30.3318 78.839 30.5395 79.8569 30.9567C80.8748 31.3739 81.7917 31.9915 82.5494 32.7703C83.307 33.549 83.8887 34.4719 84.2576 35.48C84.695 36.6736 85.0988 37.7559 85.3792 38.5182C85.4938 38.8241 85.484 39.1607 85.3517 39.4598C85.2195 39.759 84.9747 39.9983 84.667 40.1295Z"
        fill="url(#paint1_linear)" />
    <path
        d="M55.1929 41.4912L49.0743 11.2994C49.0178 11.0181 49.0711 10.7266 49.2239 10.481C49.3767 10.2355 49.6181 10.0535 49.9015 9.97023L51.584 9.47924C52.8072 9.12215 54.0941 9.0164 55.3621 9.16877C56.6301 9.32114 57.8512 9.72827 58.947 10.364C60.0427 10.9998 60.989 11.8501 61.725 12.8605C62.4611 13.8709 62.9707 15.0189 63.2211 16.231L68.3049 40.8402C68.747 42.7644 69.7515 44.5252 71.1988 45.9129L68.9022 46.9274C62.9434 50.112 56.6678 46.7212 55.1929 41.4912Z"
        fill="url(#paint2_linear)" />
    <path
        d="M87.7683 15.3358L94.7253 45.3567C94.792 45.6375 94.7478 45.9322 94.6015 46.1831C94.4553 46.434 94.2174 46.623 93.9345 46.7131L92.2689 47.2556C91.0558 47.6446 89.7721 47.784 88.5 47.6647C87.228 47.5454 85.9958 47.1701 84.8825 46.5629C83.7693 45.9557 82.7996 45.1301 82.0357 44.1389C81.2718 43.1478 80.7305 42.0131 80.4467 40.8076L74.6815 16.3395C74.1882 14.4231 73.1348 12.6847 71.6474 11.332L73.8907 10.2469C79.7822 6.91847 86.1503 10.1438 87.7683 15.3358Z"
        fill="url(#paint3_linear)" />
    <path
        d="M95.1879 34.4763C101.524 34.4763 106.66 29.5078 106.66 23.3788C106.66 17.2499 101.524 12.2814 95.1879 12.2814C88.8523 12.2814 83.7163 17.2499 83.7163 23.3788C83.7163 29.5078 88.8523 34.4763 95.1879 34.4763Z"
        fill="url(#paint4_linear)" />
    <path
        d="M89.7816 21.8083V23.1483H91.638V23.9974H89.7816V25.4107H91.8763V26.2841H88.674V20.9375H91.8763V21.8083H89.7816Z"
        fill="white" />
    <path
        d="M92.8605 23.0126C93.0201 22.6987 93.2684 22.435 93.5766 22.2521C93.8848 22.0692 94.2403 21.9745 94.6019 21.9791C94.8847 21.9779 95.164 22.0401 95.4179 22.1609C95.6606 22.2691 95.8723 22.433 96.0348 22.6383V20.6228H97.1564V26.2841H96.0348V25.6575C95.891 25.8716 95.6919 26.0455 95.4571 26.162C95.1908 26.2933 94.895 26.3585 94.5963 26.3519C94.2392 26.3556 93.8883 26.2615 93.584 26.0807C93.2728 25.8912 93.0222 25.6216 92.8605 25.3021C92.6776 24.945 92.5863 24.5505 92.5941 24.152C92.5863 23.7569 92.6777 23.366 92.8605 23.0126ZM95.8833 23.4982C95.7863 23.319 95.6384 23.1704 95.4571 23.0696C95.2813 22.9721 95.0822 22.9206 94.8795 22.9204C94.6825 22.9208 94.4891 22.9713 94.3187 23.0669C94.1403 23.1681 93.9939 23.3144 93.8952 23.4901C93.7838 23.6938 93.7278 23.9215 93.7326 24.152C93.7282 24.3849 93.7841 24.6153 93.8952 24.822C93.9953 25.0019 94.1422 25.1534 94.3215 25.2614C94.4905 25.3608 94.6845 25.4134 94.8823 25.4133C95.0851 25.4144 95.2846 25.3629 95.4599 25.2642C95.6418 25.1641 95.7899 25.0153 95.8861 24.8356C95.9976 24.63 96.0526 24.4002 96.046 24.1682C96.0527 23.9342 95.9967 23.7024 95.8833 23.4955V23.4982Z"
        fill="white" />
    <path
        d="M102.375 22.0469V26.2841H101.253V25.7416C101.106 25.929 100.914 26.0782 100.692 26.1756C100.458 26.2797 100.202 26.3325 99.9438 26.3302C99.6274 26.3371 99.3145 26.2652 99.0352 26.1213C98.7699 25.9791 98.5542 25.7638 98.4155 25.5028C98.2572 25.2006 98.1792 24.865 98.1884 24.5263V22.0469H99.31V24.369C99.2908 24.6504 99.3842 24.9281 99.5708 25.1448C99.7653 25.3192 100.021 25.4162 100.286 25.4162C100.551 25.4162 100.806 25.3192 101.001 25.1448C101.188 24.9281 101.281 24.6504 101.262 24.369V22.0361L102.375 22.0469Z"
        fill="white" />
    <defs>
        <linearGradient id="paint0_linear" x1="80.6658" y1="12.2597" x2="61.3267" y2="24.9261"
            gradientUnits="userSpaceOnUse">
            <stop offset="0.09" stop-color="#484FE4" />
            <stop offset="1" stop-color="#377EFF" />
        </linearGradient>
        <linearGradient id="paint1_linear" x1="62.1843" y1="44.7209" x2="81.8757" y2="32.5731"
            gradientUnits="userSpaceOnUse">
            <stop offset="0.23" stop-color="#5E64FF" />
            <stop offset="1" stop-color="#985CD0" />
        </linearGradient>
        <linearGradient id="paint2_linear" x1="54.195" y1="9.08836" x2="63.5467" y2="47.5226"
            gradientUnits="userSpaceOnUse">
            <stop stop-color="#6F64FF" />
            <stop offset="1" stop-color="#CA5CD0" />
        </linearGradient>
        <linearGradient id="paint3_linear" x1="94.3665" y1="52.6348" x2="78.8415" y2="13.0829"
            gradientUnits="userSpaceOnUse">
            <stop offset="0.09" stop-color="#484FE4" />
            <stop offset="1" stop-color="#00E8FF" />
        </linearGradient>
        <linearGradient id="paint4_linear" x1="104.385" y1="13.7842" x2="88.1076" y2="31.9304"
            gradientUnits="userSpaceOnUse">
            <stop stop-color="#FBB03B" />
            <stop offset="0.16" stop-color="#FCA82B" />
            <stop offset="0.47" stop-color="#FE9B13" />
            <stop offset="0.76" stop-color="#FF9405" />
            <stop offset="1" stop-color="#FF9100" />
        </linearGradient>
    </defs>
</svg>
