<svg width="19" height="20" viewBox="0 0 19 20" fill="none" xmlns="http://www.w3.org/2000/svg">
    <path
        d="M18.3461 7.77255C18.3371 7.39502 18.1829 7.03549 17.9156 6.76871C17.6483 6.50193 17.2885 6.34843 16.911 6.34013C16.5334 6.33182 16.1672 6.46936 15.8885 6.72413C15.6097 6.9789 15.4399 7.33131 15.4143 7.70808V10.7081C15.4143 10.6588 15.4143 7.67394 15.4143 7.62843C15.3821 7.2639 15.2145 6.92465 14.9445 6.67754C14.6746 6.43043 14.3219 6.29337 13.956 6.29337C13.59 6.29337 13.2373 6.43043 12.9674 6.67754C12.6975 6.92465 12.5299 7.2639 12.4977 7.62843C12.4977 7.67773 12.4977 10.6626 12.4977 10.7119C12.4977 10.6816 12.4977 7.71945 12.4977 7.67773C12.4804 7.30721 12.3232 6.95705 12.0578 6.69798C11.7923 6.43892 11.4384 6.29028 11.0676 6.28209C10.6967 6.2739 10.3366 6.40678 10.06 6.65388C9.78336 6.90097 9.61083 7.24386 9.57727 7.61326C9.57727 7.66256 9.57727 10.6474 9.57727 10.6967V2.54237C9.58739 2.3436 9.55697 2.14484 9.48786 1.95819C9.41876 1.77154 9.31242 1.60089 9.17531 1.45662C9.03819 1.31235 8.87317 1.19747 8.69027 1.11898C8.50737 1.04048 8.31041 1 8.11138 1C7.91235 1 7.71539 1.04048 7.53249 1.11898C7.34959 1.19747 7.18457 1.31235 7.04745 1.45662C6.91034 1.60089 6.804 1.77154 6.7349 1.95819C6.66579 2.14484 6.63537 2.3436 6.64549 2.54237V12.7031L4.43433 10.6664C4.05455 10.325 3.58282 10.1027 3.07777 10.0272C2.57271 9.95171 2.0566 10.0263 1.59357 10.2416L1.42669 10.3213C1.32009 10.3731 1.22713 10.4493 1.15527 10.5435C1.08341 10.6378 1.03464 10.7476 1.01289 10.8641C0.991128 10.9807 0.996986 11.1007 1.02999 11.2145C1.06299 11.3284 1.12222 11.4329 1.20292 11.5198L7.48368 18.0509C7.81558 18.4412 8.22822 18.7549 8.69312 18.9704C9.15803 19.1858 9.66413 19.2978 10.1765 19.2987H13.4269C14.0744 19.2987 14.7155 19.1711 15.3137 18.9233C15.9119 18.6756 16.4555 18.3124 16.9133 17.8545C17.3712 17.3967 17.7343 16.8532 17.9821 16.255C18.2299 15.6568 18.3574 15.0156 18.3574 14.3681V13.2303C18.3574 13.1962 18.3574 13.162 18.3574 13.1279C18.3574 13.0938 18.3574 13.0558 18.3574 13.0217L18.3461 7.77255Z"
        stroke="#1599F3" stroke-linecap="round" stroke-linejoin="round" />
</svg>
