<svg xmlns="http://www.w3.org/2000/svg" viewBox="0 0 701 274">
    <defs>
        <style>
            .cls-1{fill:#fff;}.cls-2{fill:url(#linear-gradient);}.cls-3{fill:url(#linear-gradient-2);}.cls-4{fill:url(#linear-gradient-3);}.cls-5{fill:url(#linear-gradient-4);}.cls-6{fill:url(#linear-gradient-5);}
        </style>
        <linearGradient id="linear-gradient" x1="2011.09" y1="-3983.68" x2="2061.25" y2="-4050.13"
            gradientTransform="translate(3444.01 -2945.31) rotate(-159.41)"
            gradientUnits="userSpaceOnUse">
            <stop offset="0.09" stop-color="#484fe4" />
            <stop offset="1" stop-color="#377eff" />
        </linearGradient>
        <linearGradient id="linear-gradient-2" x1="916.74" y1="702" x2="966.89" y2="635.56"
            gradientTransform="translate(-490.21 -799.31) rotate(22.13)"
            gradientUnits="userSpaceOnUse">
            <stop offset="0.23" stop-color="#5e64ff" />
            <stop offset="1" stop-color="#985cd0" />
        </linearGradient>
        <linearGradient id="linear-gradient-3" x1="167.33" y1="139.68" x2="210.63" y2="278.64"
            gradientTransform="translate(-93.24 -83.82) rotate(3.19)"
            gradientUnits="userSpaceOnUse">
            <stop offset="0" stop-color="#6f64ff" />
            <stop offset="1" stop-color="#ca5cd0" />
        </linearGradient>
        <linearGradient id="linear-gradient-4" x1="289.49" y1="275.57" x2="225.04" y2="133.6"
            gradientTransform="translate(-68.74 -61.63) rotate(2.33)"
            gradientUnits="userSpaceOnUse">
            <stop offset="0.09" stop-color="#484fe4" />
            <stop offset="1" stop-color="#00e8ff" />
        </linearGradient>
        <linearGradient id="linear-gradient-5" x1="245.04" y1="82.27" x2="184.85" y2="147.18"
            gradientUnits="userSpaceOnUse">
            <stop offset="0" stop-color="#fbb03b" />
            <stop offset="0.16" stop-color="#fca82b" />
            <stop offset="0.47" stop-color="#fe9b13" />
            <stop offset="0.76" stop-color="#ff9405" />
            <stop offset="1" stop-color="#ff9100" />
        </linearGradient>
    </defs>
    <g id="Layer_1" data-name="Layer 1">
        <path class="cls-1" d="M308.94,123.15h21.17v10.22H296.06V69.12h12.88Z" />
        <path class="cls-1"
            d="M385.34,111.74H348.06a12.68,12.68,0,0,0,3.87,8.65,11.89,11.89,0,0,0,8.37,3.13q7.18,0,10.22-6.17h13.9A23.24,23.24,0,0,1,376,129.46q-6.26,4.74-15.37,4.74a26.6,26.6,0,0,1-13.21-3.27,23,23,0,0,1-9.11-9.25A28.33,28.33,0,0,1,335,107.87,28.81,28.81,0,0,1,338.21,94a22.55,22.55,0,0,1,9-9.21,27,27,0,0,1,13.35-3.22,26.73,26.73,0,0,1,13,3.13,22,22,0,0,1,8.93,8.88,26.87,26.87,0,0,1,3.18,13.21A31,31,0,0,1,385.34,111.74Zm-13-8.65a10.2,10.2,0,0,0-3.59-8,12.68,12.68,0,0,0-8.56-3,11.69,11.69,0,0,0-8,2.9,12.77,12.77,0,0,0-4,8.06Z" />
        <path class="cls-1"
            d="M394.86,94a22.65,22.65,0,0,1,8.38-9.21,22.28,22.28,0,0,1,11.83-3.22,20.8,20.8,0,0,1,10,2.3,20.32,20.32,0,0,1,6.86,5.8V82.38h13v51h-13v-7.45a19,19,0,0,1-6.86,5.93A20.89,20.89,0,0,1,415,134.2a21.68,21.68,0,0,1-11.74-3.32,23.15,23.15,0,0,1-8.38-9.34,30.05,30.05,0,0,1-3.08-13.85A29.55,29.55,0,0,1,394.86,94Zm35.21,5.84a12.92,12.92,0,0,0-5-5.15,13.28,13.28,0,0,0-6.72-1.8,12.93,12.93,0,0,0-11.55,6.86,16,16,0,0,0-1.89,8,16.48,16.48,0,0,0,1.89,8,13.62,13.62,0,0,0,5,5.3,12.71,12.71,0,0,0,6.58,1.84,13.28,13.28,0,0,0,6.72-1.8,12.92,12.92,0,0,0,5-5.15,18.55,18.55,0,0,0,0-16.11Z" />
        <path class="cls-1"
            d="M457.27,94a22.21,22.21,0,0,1,20.29-12.43,21.71,21.71,0,0,1,9.49,2.16,19,19,0,0,1,7.17,5.76V65.26h13.07v68.11H494.22v-7.55a17.45,17.45,0,0,1-6.71,6.08,21.13,21.13,0,0,1-10,2.3,21.91,21.91,0,0,1-11.78-3.32,23,23,0,0,1-8.42-9.34,29.93,29.93,0,0,1-3.08-13.85A29.43,29.43,0,0,1,457.27,94Zm35.21,5.84a13,13,0,0,0-5-5.15,13.28,13.28,0,0,0-6.72-1.8,13,13,0,0,0-11.56,6.86,16.07,16.07,0,0,0-1.88,8,16.59,16.59,0,0,0,1.88,8,13.64,13.64,0,0,0,5,5.3,12.65,12.65,0,0,0,6.58,1.84,13.28,13.28,0,0,0,6.72-1.8,13,13,0,0,0,5-5.15,18.55,18.55,0,0,0,0-16.11Z" />
        <path class="cls-1"
            d="M585.72,69.68v63.69h-8.38V85.88l-21.17,47.49h-5.89L529,85.78v47.59h-8.38V69.68h9l23.56,52.65,23.57-52.65Z" />
        <path class="cls-1"
            d="M645.63,111.28H605.32q.46,7.45,5.11,11.64a16.22,16.22,0,0,0,11.27,4.19,15.5,15.5,0,0,0,9.07-2.53,13.41,13.41,0,0,0,5.11-6.77h9a21.69,21.69,0,0,1-8.1,11.83q-6.07,4.56-15.1,4.56A25.5,25.5,0,0,1,608.86,131a22.84,22.84,0,0,1-8.88-9.16,28.4,28.4,0,0,1-3.22-13.76,28.78,28.78,0,0,1,3.13-13.72,21.94,21.94,0,0,1,8.79-9.06,26.11,26.11,0,0,1,13-3.18,25.42,25.42,0,0,1,12.71,3.13,21.75,21.75,0,0,1,8.51,8.61,25.45,25.45,0,0,1,3,12.38A47.76,47.76,0,0,1,645.63,111.28Zm-10.49-15A13.81,13.81,0,0,0,629.39,91a18.06,18.06,0,0,0-8.06-1.79,15.52,15.52,0,0,0-10.81,4q-4.47,4-5.11,11.23h31.85A15.47,15.47,0,0,0,635.14,96.23Z" />
        <path class="cls-1" d="M297.33,188.79H308.4v3.36H293.2V160.52h4.13Z" />
        <path class="cls-1"
            d="M335.35,181.26H315.48a7.81,7.81,0,0,0,8.08,7.8,7.62,7.62,0,0,0,4.46-1.24,6.61,6.61,0,0,0,2.52-3.34H335a10.75,10.75,0,0,1-4,5.83,12,12,0,0,1-7.44,2.25,12.56,12.56,0,0,1-6.33-1.59,11.22,11.22,0,0,1-4.38-4.52,14,14,0,0,1-1.59-6.78,14.19,14.19,0,0,1,1.54-6.76,10.79,10.79,0,0,1,4.33-4.47,13,13,0,0,1,6.43-1.57,12.47,12.47,0,0,1,6.26,1.55,10.68,10.68,0,0,1,4.19,4.24,12.43,12.43,0,0,1,1.48,6.1A24.63,24.63,0,0,1,335.35,181.26Zm-5.17-7.42a6.83,6.83,0,0,0-2.84-2.59,8.8,8.8,0,0,0-4-.88,7.63,7.63,0,0,0-5.33,2,8.14,8.14,0,0,0-2.52,5.53h15.7A7.57,7.57,0,0,0,330.18,173.84Z" />
        <path class="cls-1"
            d="M340.93,172.93a11.24,11.24,0,0,1,4.25-4.47,11.61,11.61,0,0,1,6-1.59,11,11,0,0,1,5.67,1.41,9.47,9.47,0,0,1,3.59,3.54v-4.54h4.17v24.87h-4.17v-4.63a9.83,9.83,0,0,1-3.66,3.61,11,11,0,0,1-5.65,1.43,11.28,11.28,0,0,1-6-1.64,11.48,11.48,0,0,1-4.22-4.58,14.38,14.38,0,0,1-1.54-6.72A14.05,14.05,0,0,1,340.93,172.93Zm18.38,1.84a8.07,8.07,0,0,0-3.06-3.2,8.68,8.68,0,0,0-8.46,0,7.82,7.82,0,0,0-3,3.17,10.1,10.1,0,0,0-1.14,4.9,10.28,10.28,0,0,0,1.14,5,8,8,0,0,0,3,3.23,8.21,8.21,0,0,0,4.22,1.11,8.36,8.36,0,0,0,4.24-1.11,8.09,8.09,0,0,0,3.06-3.23,10.16,10.16,0,0,0,1.14-4.92A10.05,10.05,0,0,0,359.31,174.77Z" />
        <path class="cls-1"
            d="M378.84,168a9.6,9.6,0,0,1,4.93-1.18v4.26h-1.09q-6.94,0-6.94,7.54v13.52h-4.13V167.28h4.13v4A7.93,7.93,0,0,1,378.84,168Z" />
        <path class="cls-1"
            d="M408,169.57c1.87,1.84,2.81,4.47,2.81,7.92v14.66h-4.08V178.08a8,8,0,0,0-1.86-5.69,6.65,6.65,0,0,0-5.09-2,6.77,6.77,0,0,0-5.19,2.05,8.31,8.31,0,0,0-1.93,5.94v13.75h-4.13V167.28h4.13v3.54a8.25,8.25,0,0,1,3.34-2.95,10.38,10.38,0,0,1,4.65-1A10.09,10.09,0,0,1,408,169.57Z" />
        <path class="cls-1"
            d="M417.71,162.43a2.81,2.81,0,0,1,2-4.81,2.6,2.6,0,0,1,1.93.81,2.9,2.9,0,0,1,0,4,2.6,2.6,0,0,1-1.93.81A2.72,2.72,0,0,1,417.71,162.43Zm4,4.85v24.87h-4.13V167.28Z" />
        <path class="cls-1"
            d="M448.2,169.57c1.87,1.84,2.81,4.47,2.81,7.92v14.66h-4.08V178.08a8,8,0,0,0-1.86-5.69,6.64,6.64,0,0,0-5.08-2,6.79,6.79,0,0,0-5.2,2.05,8.31,8.31,0,0,0-1.93,5.94v13.75h-4.13V167.28h4.13v3.54a8.25,8.25,0,0,1,3.34-2.95,10.38,10.38,0,0,1,4.65-1A10.09,10.09,0,0,1,448.2,169.57Z" />
        <path class="cls-1"
            d="M473.68,168.28a9.35,9.35,0,0,1,3.6,3.54v-4.54h4.18v25.41a12.51,12.51,0,0,1-1.45,6.06,10.39,10.39,0,0,1-4.16,4.15,12.68,12.68,0,0,1-6.28,1.5,13.8,13.8,0,0,1-8.17-2.31,9.08,9.08,0,0,1-3.85-6.31h4.08a6.48,6.48,0,0,0,2.81,3.65,9.23,9.23,0,0,0,5.13,1.39,7.58,7.58,0,0,0,5.56-2.14,8,8,0,0,0,2.15-6v-5.22a9.72,9.72,0,0,1-3.63,3.63,10.62,10.62,0,0,1-5.62,1.46,11.36,11.36,0,0,1-10.26-6.22,14.26,14.26,0,0,1-1.54-6.72,13.94,13.94,0,0,1,1.54-6.69,11.24,11.24,0,0,1,4.25-4.47,11.59,11.59,0,0,1,6-1.59A11,11,0,0,1,473.68,168.28Zm2.47,6.49a8.07,8.07,0,0,0-3.06-3.2,8.7,8.7,0,0,0-8.47,0,7.88,7.88,0,0,0-3,3.17,10.22,10.22,0,0,0-1.13,4.9,10.39,10.39,0,0,0,1.13,5,8.11,8.11,0,0,0,3,3.23,8.26,8.26,0,0,0,4.22,1.11,8.37,8.37,0,0,0,4.25-1.11,8.09,8.09,0,0,0,3.06-3.23,10.16,10.16,0,0,0,1.13-4.92A10,10,0,0,0,476.15,174.77Z" />
        <path class="cls-1"
            d="M519.26,185.12h-13.8l-2.54,7h-4.35L510,160.7h4.76l11.39,31.45H521.8Zm-1.18-3.36-5.72-16-5.72,16Z" />
        <path class="cls-1"
            d="M538.93,168.3a10.93,10.93,0,0,1,5.65-1.43,11.64,11.64,0,0,1,6,1.59,11.21,11.21,0,0,1,4.24,4.47,13.94,13.94,0,0,1,1.54,6.69,14.26,14.26,0,0,1-1.54,6.72,11.33,11.33,0,0,1-10.25,6.22,10.89,10.89,0,0,1-5.61-1.43,10.31,10.31,0,0,1-3.7-3.56V204h-4.13V167.28h4.13v4.59A9.89,9.89,0,0,1,538.93,168.3ZM551,174.72a7.86,7.86,0,0,0-3.06-3.17,8.46,8.46,0,0,0-4.25-1.09,8.23,8.23,0,0,0-4.19,1.11,8.13,8.13,0,0,0-3.09,3.22,10.93,10.93,0,0,0,0,9.8,8.13,8.13,0,0,0,7.28,4.34,8.37,8.37,0,0,0,4.25-1.11,8.09,8.09,0,0,0,3.06-3.23,10.39,10.39,0,0,0,1.13-5A10.22,10.22,0,0,0,551,174.72Z" />
        <path class="cls-1"
            d="M569.6,168.3a11,11,0,0,1,5.65-1.43,11.61,11.61,0,0,1,6,1.59,11.21,11.21,0,0,1,4.24,4.47,13.94,13.94,0,0,1,1.55,6.69,14.26,14.26,0,0,1-1.55,6.72,11.33,11.33,0,0,1-10.25,6.22,10.82,10.82,0,0,1-5.6-1.43,10.23,10.23,0,0,1-3.7-3.56V204h-4.13V167.28H566v4.59A9.79,9.79,0,0,1,569.6,168.3Zm12.09,6.42a7.8,7.8,0,0,0-3.06-3.17,8.45,8.45,0,0,0-4.24-1.09,8.14,8.14,0,0,0-7.29,4.33,11,11,0,0,0,0,9.8,8.13,8.13,0,0,0,7.29,4.34,8.36,8.36,0,0,0,4.24-1.11,8,8,0,0,0,3.06-3.23,10.28,10.28,0,0,0,1.14-5A10.1,10.1,0,0,0,581.69,174.72Z" />
    </g>
    <g id="Layer_6" data-name="Layer 6">
        <path class="cls-2"
            d="M80.85,95.83l47.44-22.6,19.8,12.5,5.2,27.08-31.47,15.45a28.41,28.41,0,0,1-39-15.3c-1.67-4.36-3.21-8.31-4.32-11.09A4.74,4.74,0,0,1,80.85,95.83Z" />
        <path class="cls-3"
            d="M174.72,179.39l-48,21.32-19.45-13-4.48-27.21,31.88-14.6a28.41,28.41,0,0,1,38.59,16.34c1.56,4.4,3,8.4,4,11.21A4.73,4.73,0,0,1,174.72,179.39Z" />
        <path class="cls-4"
            d="M69.61,184.41,47.79,73.11a4.27,4.27,0,0,1,3-4.9l6-1.81a32.68,32.68,0,0,1,41.5,24.89L116.37,182a38,38,0,0,0,10.32,18.7l-8.15,3.73C97.25,216.19,74.87,203.69,69.61,184.41Z" />
        <path class="cls-5"
            d="M185.78,88l24.81,110.67a4.26,4.26,0,0,1-2.82,5l-5.94,2a32.69,32.69,0,0,1-42.16-23.77l-20.56-90.2a37.91,37.91,0,0,0-10.82-18.41l8.05-4C157.3,57,180,68.85,185.78,88Z" />
        <circle class="cls-6" cx="212.24" cy="117.64" r="40.91" />
        <path class="cls-1"
            d="M193,111.85v4.94h6.62v3.13H193v5.21h7.47v3.22H189V108.64h11.42v3.21Z" />
        <path class="cls-1"
            d="M203.94,116.28a6.82,6.82,0,0,1,6.21-3.81,6.66,6.66,0,0,1,2.91.66,5.89,5.89,0,0,1,2.2,1.77v-7.42h4v20.87h-4V126a5.39,5.39,0,0,1-2.06,1.86,6.44,6.44,0,0,1-3.07.71,6.68,6.68,0,0,1-3.61-1,7,7,0,0,1-2.58-2.86,9.16,9.16,0,0,1-.95-4.24A9,9,0,0,1,203.94,116.28Zm10.78,1.79a3.92,3.92,0,0,0-1.52-1.58,4.05,4.05,0,0,0-2.06-.55,4,4,0,0,0-2,.54A4.05,4.05,0,0,0,207.6,118a5,5,0,0,0-.58,2.44,5.15,5.15,0,0,0,.58,2.47,4.32,4.32,0,0,0,1.52,1.62,4,4,0,0,0,2,.56,4.05,4.05,0,0,0,2.06-.55,3.92,3.92,0,0,0,1.52-1.58,5.62,5.62,0,0,0,0-4.93Z" />
        <path class="cls-1"
            d="M237.87,112.73v15.62h-4v-2a5.1,5.1,0,0,1-2,1.59,6.13,6.13,0,0,1-2.67.58,6.58,6.58,0,0,1-3.24-.77,5.43,5.43,0,0,1-2.21-2.29,7.46,7.46,0,0,1-.81-3.59v-9.16h4v8.6a4.05,4.05,0,0,0,.93,2.86,3.75,3.75,0,0,0,5.1,0,4.05,4.05,0,0,0,.93-2.86v-8.6Z" />
    </g>
</svg>