<svg xmlns="http://www.w3.org/2000/svg" viewBox="0 0 701 199">
    <defs>
        <style>
            .cls-1{fill:#3a3a3a;}.cls-2{fill:url(#linear-gradient);}.cls-3{fill:url(#linear-gradient-2);}.cls-4{fill:url(#linear-gradient-3);}.cls-5{fill:url(#linear-gradient-4);}.cls-6{fill:url(#linear-gradient-5);}.cls-7{fill:#fff;}
        </style>
        <linearGradient id="linear-gradient" x1="3556.87" y1="-3614.98" x2="3607.03" y2="-3681.42"
            gradientTransform="translate(4758.41 -2088.58) rotate(-159.41)"
            gradientUnits="userSpaceOnUse">
            <stop offset="0.09" stop-color="#484fe4" />
            <stop offset="1" stop-color="#377eff" />
        </linearGradient>
        <linearGradient id="linear-gradient-2" x1="839.65" y1="973.12" x2="889.8" y2="906.67"
            gradientTransform="translate(-319.67 -1053.42) rotate(22.13)"
            gradientUnits="userSpaceOnUse">
            <stop offset="0.23" stop-color="#5e64ff" />
            <stop offset="1" stop-color="#985cd0" />
        </linearGradient>
        <linearGradient id="linear-gradient-3" x1="146.5" y1="149.28" x2="189.8" y2="288.23"
            gradientTransform="translate(-74.91 -124.24) rotate(3.19)"
            gradientUnits="userSpaceOnUse">
            <stop offset="0" stop-color="#6f64ff" />
            <stop offset="1" stop-color="#ca5cd0" />
        </linearGradient>
        <linearGradient id="linear-gradient-4" x1="273.24" y1="273.83" x2="208.8" y2="131.86"
            gradientTransform="translate(-55.58 -91.23) rotate(2.33)"
            gradientUnits="userSpaceOnUse">
            <stop offset="0.09" stop-color="#484fe4" />
            <stop offset="1" stop-color="#00e8ff" />
        </linearGradient>
        <linearGradient id="linear-gradient-5" x1="242.04" y1="50.27" x2="181.85" y2="115.18"
            gradientUnits="userSpaceOnUse">
            <stop offset="0" stop-color="#fbb03b" />
            <stop offset="0.16" stop-color="#fca82b" />
            <stop offset="0.47" stop-color="#fe9b13" />
            <stop offset="0.76" stop-color="#ff9405" />
            <stop offset="1" stop-color="#ff9100" />
        </linearGradient>
    </defs>
    <g id="Layer_1" data-name="Layer 1">
        <path class="cls-1" d="M297.35,121.38H319v10.44H284.19V66.21h13.16Z" />
        <path class="cls-1"
            d="M375.37,109.73H337.3a12.91,12.91,0,0,0,3.95,8.83,12.13,12.13,0,0,0,8.55,3.2q7.33,0,10.44-6.3h14.19a23.65,23.65,0,0,1-8.65,12.36q-6.39,4.85-15.69,4.84a27.2,27.2,0,0,1-13.49-3.33,23.46,23.46,0,0,1-9.31-9.45,29,29,0,0,1-3.34-14.1,29.5,29.5,0,0,1,3.29-14.19,22.94,22.94,0,0,1,9.22-9.4,29.6,29.6,0,0,1,26.93-.1,22.54,22.54,0,0,1,9.11,9.07,27.4,27.4,0,0,1,3.25,13.49A31.21,31.21,0,0,1,375.37,109.73Zm-13.25-8.84a10.48,10.48,0,0,0-3.67-8.13,13,13,0,0,0-8.74-3.05,11.94,11.94,0,0,0-8.23,3,13,13,0,0,0-4.08,8.22Z" />
        <path class="cls-1"
            d="M385.1,91.59a23,23,0,0,1,8.55-9.4,22.73,22.73,0,0,1,12.08-3.29,21.16,21.16,0,0,1,10.2,2.35,20.65,20.65,0,0,1,7,5.92V79.74h13.25v52.08H422.94V124.2a19.62,19.62,0,0,1-7,6.07,21.39,21.39,0,0,1-10.29,2.39,22.12,22.12,0,0,1-12-3.38,23.76,23.76,0,0,1-8.55-9.54A30.62,30.62,0,0,1,382,105.59,30.11,30.11,0,0,1,385.1,91.59Zm36,6A13.3,13.3,0,0,0,416,92.29a13.59,13.59,0,0,0-6.86-1.83,13.19,13.19,0,0,0-11.8,7,16.4,16.4,0,0,0-1.93,8.13,16.94,16.94,0,0,0,1.93,8.23,13.81,13.81,0,0,0,5.08,5.4,12.81,12.81,0,0,0,6.72,1.88,13.59,13.59,0,0,0,6.86-1.83,13.3,13.3,0,0,0,5.08-5.27,18.91,18.91,0,0,0,0-16.44Z" />
        <path class="cls-1"
            d="M448.83,91.59A22.7,22.7,0,0,1,469.56,78.9a22,22,0,0,1,9.68,2.21A19.38,19.38,0,0,1,486.57,87V62.26h13.35v69.56H486.57v-7.71a17.73,17.73,0,0,1-6.86,6.2,21.47,21.47,0,0,1-10.25,2.35,22.35,22.35,0,0,1-12-3.38,23.65,23.65,0,0,1-8.6-9.54,30.62,30.62,0,0,1-3.15-14.15A30.11,30.11,0,0,1,448.83,91.59Zm36,6a13.3,13.3,0,0,0-5.08-5.27,13.59,13.59,0,0,0-6.86-1.83,13.33,13.33,0,0,0-6.77,1.78,13.53,13.53,0,0,0-5,5.22,16.4,16.4,0,0,0-1.93,8.13,16.94,16.94,0,0,0,1.93,8.23,13.88,13.88,0,0,0,5.08,5.4,12.83,12.83,0,0,0,6.72,1.88,13.59,13.59,0,0,0,6.86-1.83,13.3,13.3,0,0,0,5.08-5.27,18.91,18.91,0,0,0,0-16.44Z" />
        <path class="cls-1"
            d="M580,66.77v65.05h-8.56V83.31l-21.62,48.51h-6L522.1,83.22v48.6h-8.55v-65h9.21l24.07,53.77,24.06-53.77Z" />
        <path class="cls-1"
            d="M641.2,109.26H600q.47,7.6,5.22,11.89a16.58,16.58,0,0,0,11.51,4.28,15.78,15.78,0,0,0,9.26-2.59,13.66,13.66,0,0,0,5.22-6.91h9.21A22.18,22.18,0,0,1,632.18,128q-6.21,4.65-15.42,4.65a25.94,25.94,0,0,1-13.11-3.29,23.21,23.21,0,0,1-9.07-9.35,28.91,28.91,0,0,1-3.29-14,29.43,29.43,0,0,1,3.19-14,22.52,22.52,0,0,1,9-9.26,26.74,26.74,0,0,1,13.3-3.24,25.85,25.85,0,0,1,13,3.2,22.15,22.15,0,0,1,8.7,8.79,26,26,0,0,1,3.05,12.64A49.79,49.79,0,0,1,641.2,109.26ZM630.49,93.89a14.15,14.15,0,0,0-5.88-5.36,18.37,18.37,0,0,0-8.22-1.83,15.89,15.89,0,0,0-11,4.13q-4.56,4.14-5.22,11.47h32.53A15.78,15.78,0,0,0,630.49,93.89Z" />
    </g>
    <g id="Layer_6" data-name="Layer 6">
        <path class="cls-2"
            d="M77.85,63.83l47.44-22.6,19.8,12.5,5.2,27.08L118.82,96.26A28.41,28.41,0,0,1,79.8,81c-1.67-4.36-3.21-8.31-4.32-11.09A4.74,4.74,0,0,1,77.85,63.83Z" />
        <path class="cls-3"
            d="M171.72,147.39l-48,21.32-19.45-13-4.48-27.21,31.88-14.6a28.41,28.41,0,0,1,38.59,16.34c1.56,4.4,3,8.4,4,11.21A4.73,4.73,0,0,1,171.72,147.39Z" />
        <path class="cls-4"
            d="M66.61,152.41,44.79,41.11a4.27,4.27,0,0,1,3-4.9l6-1.81a32.68,32.68,0,0,1,41.5,24.89L113.37,150a38,38,0,0,0,10.32,18.7l-8.15,3.73C94.25,184.19,71.87,171.69,66.61,152.41Z" />
        <path class="cls-5"
            d="M182.78,56l24.81,110.67a4.26,4.26,0,0,1-2.82,5l-5.94,2a32.69,32.69,0,0,1-42.16-23.77l-20.56-90.2a37.91,37.91,0,0,0-10.82-18.41l8-4C154.3,25,177,36.85,182.78,56Z" />
        <circle class="cls-6" cx="209.24" cy="85.64" r="40.91" />
        <path class="cls-7"
            d="M190,79.85v4.94h6.62v3.13H190v5.21h7.47v3.22H186V76.64h11.42v3.21Z" />
        <path class="cls-7"
            d="M200.94,84.28a6.82,6.82,0,0,1,6.21-3.81,6.66,6.66,0,0,1,2.91.66,5.89,5.89,0,0,1,2.2,1.77V75.48h4V96.35h-4V94a5.39,5.39,0,0,1-2.06,1.86,6.44,6.44,0,0,1-3.07.71,6.68,6.68,0,0,1-3.61-1,7,7,0,0,1-2.58-2.86,9.16,9.16,0,0,1-.95-4.24A9,9,0,0,1,200.94,84.28Zm10.78,1.79a3.92,3.92,0,0,0-1.52-1.58,4.05,4.05,0,0,0-2.06-.55,4,4,0,0,0-2,.54A4.05,4.05,0,0,0,204.6,86a5,5,0,0,0-.58,2.44A5.15,5.15,0,0,0,204.6,91a4.32,4.32,0,0,0,1.52,1.62,4,4,0,0,0,2,.56,4.05,4.05,0,0,0,2.06-.55A3.92,3.92,0,0,0,211.72,91a5.62,5.62,0,0,0,0-4.93Z" />
        <path class="cls-7"
            d="M234.87,80.73V96.35h-4v-2a5.1,5.1,0,0,1-2,1.59,6.13,6.13,0,0,1-2.67.58,6.58,6.58,0,0,1-3.24-.77,5.43,5.43,0,0,1-2.21-2.29,7.46,7.46,0,0,1-.81-3.59V80.73h4v8.6a4.05,4.05,0,0,0,.93,2.86,3.75,3.75,0,0,0,5.1,0,4.05,4.05,0,0,0,.93-2.86v-8.6Z" />
    </g>
</svg>