<svg xmlns="http://www.w3.org/2000/svg" viewBox="0 0 235.5 171.71">
    <defs>
        <style>
            .cls-1{fill:url(#linear-gradient);}.cls-2{fill:url(#linear-gradient-2);}.cls-3{fill:url(#linear-gradient-3);}.cls-4{fill:url(#linear-gradient-4);}.cls-5{fill:url(#linear-gradient-5);}.cls-6{fill:#fff;}
        </style>
        <linearGradient id="linear-gradient" x1="2311.85" y1="-2893.32" x2="2362.01" y2="-2959.76"
            gradientTransform="translate(3310.64 -1864.11) rotate(-159.41)"
            gradientUnits="userSpaceOnUse">
            <stop offset="0.09" stop-color="#484fe4" />
            <stop offset="1" stop-color="#377eff" />
        </linearGradient>
        <linearGradient id="linear-gradient-2" x1="664.62" y1="724.5" x2="714.77" y2="658.05"
            gradientTransform="translate(-279.69 -770.47) rotate(22.13)"
            gradientUnits="userSpaceOnUse">
            <stop offset="0.23" stop-color="#5e64ff" />
            <stop offset="1" stop-color="#985cd0" />
        </linearGradient>
        <linearGradient id="linear-gradient-3" x1="102.65" y1="98.83" x2="145.95" y2="237.78"
            gradientTransform="translate(-62.44 -84.72) rotate(3.19)"
            gradientUnits="userSpaceOnUse">
            <stop offset="0" stop-color="#6f64ff" />
            <stop offset="1" stop-color="#ca5cd0" />
        </linearGradient>
        <linearGradient id="linear-gradient-4" x1="233.75" y1="233.34" x2="169.3" y2="91.36"
            gradientTransform="translate(-46.26 -62.45) rotate(2.33)"
            gradientUnits="userSpaceOnUse">
            <stop offset="0.09" stop-color="#484fe4" />
            <stop offset="1" stop-color="#00e8ff" />
        </linearGradient>
        <linearGradient id="linear-gradient-5" x1="213.54" y1="36.98" x2="153.35" y2="101.89"
            gradientUnits="userSpaceOnUse">
            <stop offset="0" stop-color="#fbb03b" />
            <stop offset="0.16" stop-color="#fca82b" />
            <stop offset="0.47" stop-color="#fe9b13" />
            <stop offset="0.76" stop-color="#ff9405" />
            <stop offset="1" stop-color="#ff9100" />
        </linearGradient>
    </defs>
    <g id="Layer_6" data-name="Layer 6">
        <path class="cls-1"
            d="M49.35,50.54l47.44-22.6,19.8,12.5,5.2,27.08L90.32,83a28.41,28.41,0,0,1-39-15.3c-1.67-4.36-3.21-8.31-4.32-11.09A4.74,4.74,0,0,1,49.35,50.54Z" />
        <path class="cls-2"
            d="M143.22,134.1l-48,21.32-19.45-13-4.48-27.21,31.88-14.6a28.4,28.4,0,0,1,38.59,16.35c1.56,4.4,3,8.39,4,11.2A4.73,4.73,0,0,1,143.22,134.1Z" />
        <path class="cls-3"
            d="M38.11,139.12,16.29,27.82a4.27,4.27,0,0,1,2.95-4.9l6-1.81A32.69,32.69,0,0,1,66.74,46l18.13,90.72a37.91,37.91,0,0,0,10.32,18.7L87,159.16C65.75,170.9,43.37,158.4,38.11,139.12Z" />
        <path class="cls-4"
            d="M154.28,42.7l24.81,110.67a4.26,4.26,0,0,1-2.82,5l-5.94,2a32.69,32.69,0,0,1-42.16-23.77l-20.56-90.2A37.91,37.91,0,0,0,96.79,27.94l8-4C125.8,11.67,148.51,23.56,154.28,42.7Z" />
        <circle class="cls-5" cx="180.74" cy="72.35" r="40.91" />
        <path class="cls-6"
            d="M161.46,66.56V71.5h6.62v3.13h-6.62v5.21h7.47v3.22H157.51V63.35h11.42v3.21Z" />
        <path class="cls-6"
            d="M172.44,71a6.82,6.82,0,0,1,6.21-3.81,6.53,6.53,0,0,1,2.91.67,5.86,5.86,0,0,1,2.2,1.76V62.19h4V83.06h-4V80.75a5.39,5.39,0,0,1-2.06,1.86,6.44,6.44,0,0,1-3.07.7,6.76,6.76,0,0,1-3.61-1,7.06,7.06,0,0,1-2.58-2.87,9.16,9.16,0,0,1-.95-4.24A9,9,0,0,1,172.44,71Zm10.78,1.79a3.92,3.92,0,0,0-1.52-1.58,4.15,4.15,0,0,0-2.06-.55,4,4,0,0,0-2,.54,4.05,4.05,0,0,0-1.51,1.56,5,5,0,0,0-.58,2.44,5.15,5.15,0,0,0,.58,2.47,4.32,4.32,0,0,0,1.52,1.62,3.85,3.85,0,0,0,2,.56,4.05,4.05,0,0,0,2.06-.55,3.86,3.86,0,0,0,1.52-1.58,5,5,0,0,0,.57-2.46A5,5,0,0,0,183.22,72.78Z" />
        <path class="cls-6"
            d="M206.37,67.44V83.06h-4v-2a5.22,5.22,0,0,1-2,1.6,6.27,6.27,0,0,1-2.67.57,6.58,6.58,0,0,1-3.24-.77,5.46,5.46,0,0,1-2.21-2.28,7.53,7.53,0,0,1-.81-3.6V67.44h4V76a4.05,4.05,0,0,0,.93,2.86,3.75,3.75,0,0,0,5.1,0,4.05,4.05,0,0,0,.93-2.86v-8.6Z" />
    </g>
</svg>