<svg width="24" height="24" viewBox="0 0 24 24" fill="none" xmlns="http://www.w3.org/2000/svg">
    <circle cx="12" cy="12" r="12" fill="#5677EB" />
    <path fill-rule="evenodd" clip-rule="evenodd"
        d="M15.6 9.6V10.8H16.8V9.6C16.8 6.94903 14.651 4.8 12 4.8C9.34905 4.8 7.20001 6.94903 7.20001 9.6V10.8H8.40001V9.6C8.40001 7.61177 10.0118 6 12 6C13.9882 6 15.6 7.61177 15.6 9.6Z"
        fill="white" />
    <mask id="path-3-inside-1" fill="white">
        <path fill-rule="evenodd" clip-rule="evenodd"
            d="M7 10.8C6.44772 10.8 6 11.2477 6 11.8V18.2C6 18.7523 6.44772 19.2 7 19.2H17C17.5523 19.2 18 18.7523 18 18.2V11.8C18 11.2477 17.5523 10.8 17 10.8H7ZM14.6007 14.139C14.835 13.9047 14.835 13.5248 14.6007 13.2905C14.3663 13.0562 13.9864 13.0562 13.7521 13.2905L11.4303 15.6123L10.4721 14.654C10.2378 14.4197 9.85791 14.4197 9.6236 14.654C9.38928 14.8884 9.38928 15.2683 9.6236 15.5026L11.0061 16.8851C11.2404 17.1194 11.6203 17.1194 11.8546 16.8851L14.6007 14.139Z" />
    </mask>
    <path fill-rule="evenodd" clip-rule="evenodd"
        d="M7 10.8C6.44772 10.8 6 11.2477 6 11.8V18.2C6 18.7523 6.44772 19.2 7 19.2H17C17.5523 19.2 18 18.7523 18 18.2V11.8C18 11.2477 17.5523 10.8 17 10.8H7ZM14.6007 14.139C14.835 13.9047 14.835 13.5248 14.6007 13.2905C14.3663 13.0562 13.9864 13.0562 13.7521 13.2905L11.4303 15.6123L10.4721 14.654C10.2378 14.4197 9.85791 14.4197 9.6236 14.654C9.38928 14.8884 9.38928 15.2683 9.6236 15.5026L11.0061 16.8851C11.2404 17.1194 11.6203 17.1194 11.8546 16.8851L14.6007 14.139Z"
        fill="white" />
    <path
        d="M14.6007 13.2905L15.3078 12.5834L15.3078 12.5834L14.6007 13.2905ZM14.6007 14.139L15.3078 14.8461L15.3078 14.8461L14.6007 14.139ZM11.4303 15.6123L10.7232 16.3194L11.4303 17.0265L12.1375 16.3194L11.4303 15.6123ZM10.4721 14.654L9.76502 15.3612L9.76502 15.3612L10.4721 14.654ZM9.6236 14.654L10.3307 15.3612V15.3612L9.6236 14.654ZM9.6236 15.5026L10.3307 14.7955L10.3307 14.7955L9.6236 15.5026ZM11.0061 16.8851L10.299 17.5922L10.299 17.5922L11.0061 16.8851ZM11.8546 16.8851L11.1475 16.1779L11.8546 16.8851ZM7 11.8V11.8V9.8C5.89543 9.8 5 10.6954 5 11.8H7ZM7 18.2V11.8H5V18.2H7ZM7 18.2H7H5C5 19.3046 5.89543 20.2 7 20.2V18.2ZM17 18.2H7V20.2H17V18.2ZM17 18.2V20.2C18.1046 20.2 19 19.3046 19 18.2H17ZM17 11.8V18.2H19V11.8H17ZM17 11.8H19C19 10.6954 18.1046 9.8 17 9.8V11.8ZM7 11.8H17V9.8H7V11.8ZM13.8935 13.9976C13.7373 13.8414 13.7373 13.5881 13.8935 13.4319L15.3078 14.8461C15.9326 14.2213 15.9326 13.2082 15.3078 12.5834L13.8935 13.9976ZM14.4592 13.9976C14.303 14.1538 14.0498 14.1538 13.8935 13.9976L15.3078 12.5834C14.6829 11.9585 13.6699 11.9585 13.045 12.5834L14.4592 13.9976ZM12.1375 16.3194L14.4592 13.9976L13.045 12.5834L10.7232 14.9052L12.1375 16.3194ZM9.76502 15.3612L10.7232 16.3194L12.1375 14.9052L11.1792 13.9469L9.76502 15.3612ZM10.3307 15.3612C10.1745 15.5174 9.92123 15.5174 9.76502 15.3612L11.1792 13.9469C10.5544 13.3221 9.54133 13.3221 8.91649 13.9469L10.3307 15.3612ZM10.3307 14.7955C10.4869 14.9517 10.4869 15.2049 10.3307 15.3612L8.91649 13.9469C8.29165 14.5718 8.29165 15.5848 8.91649 16.2097L10.3307 14.7955ZM11.7132 16.1779L10.3307 14.7955L8.91649 16.2097L10.299 17.5922L11.7132 16.1779ZM11.1475 16.1779C11.3037 16.0217 11.557 16.0217 11.7132 16.1779L10.299 17.5922C10.9238 18.217 11.9369 18.217 12.5617 17.5922L11.1475 16.1779ZM13.8935 13.4319L11.1475 16.1779L12.5617 17.5922L15.3078 14.8461L13.8935 13.4319Z"
        fill="white" mask="url(#path-3-inside-1)" />
</svg>
