<svg width="16" height="19" viewBox="0 0 16 19" fill="none" xmlns="http://www.w3.org/2000/svg">
    <path fill-rule="evenodd" clip-rule="evenodd"
        d="M12.8 6.33333V7.91667H14.4V6.33333C14.4 2.83553 11.5346 0 8.00001 0C4.46538 0 1.60001 2.83553 1.60001 6.33333V7.91667H3.20001V6.33333C3.20001 3.70998 5.34904 1.58333 8.00001 1.58333C10.651 1.58333 12.8 3.70998 12.8 6.33333Z"
        fill="#239EF2" />
    <path fill-rule="evenodd" clip-rule="evenodd"
        d="M1 7.91667C0.447715 7.91667 0 8.36438 0 8.91667V18C0 18.5523 0.447715 19 1 19H15C15.5523 19 16 18.5523 16 18V8.91667C16 8.36438 15.5523 7.91667 15 7.91667H1ZM11.4675 12.3223C11.78 12.0131 11.78 11.5119 11.4675 11.2027C11.1551 10.8936 10.6486 10.8936 10.3362 11.2027L7.24046 14.2662L5.96283 13.0019C5.65041 12.6927 5.14388 12.6927 4.83146 13.0019C4.51904 13.311 4.51904 13.8123 4.83146 14.1215L6.67477 15.9456C6.98719 16.2547 7.49373 16.2547 7.80614 15.9456L11.4675 12.3223Z"
        fill="#239EF2" />
</svg>
