<svg width="54" height="54" viewBox="0 0 54 54" fill="none" xmlns="http://www.w3.org/2000/svg">
    <g filter="url(#filter0_d)">
        <circle cx="27" cy="27" r="12" fill="#5E81FF" />
    </g>
    <path fill-rule="evenodd" clip-rule="evenodd"
        d="M30 25V26H31V25C31 22.7909 29.2091 21 27 21C24.7909 21 23 22.7909 23 25V26H24V25C24 23.3431 25.3431 22 27 22C28.6569 22 30 23.3431 30 25Z"
        fill="white" />
    <mask id="path-3-inside-1" fill="white">
        <path fill-rule="evenodd" clip-rule="evenodd"
            d="M23 26C22.4477 26 22 26.4477 22 27V32C22 32.5523 22.4477 33 23 33H31C31.5523 33 32 32.5523 32 32V27C32 26.4477 31.5523 26 31 26H23ZM29.1672 28.7825C29.3625 28.5872 29.3625 28.2707 29.1672 28.0754C28.972 27.8801 28.6554 27.8801 28.4601 28.0754L26.5253 30.0102L25.7268 29.2117C25.5315 29.0164 25.2149 29.0164 25.0197 29.2117C24.8244 29.407 24.8244 29.7235 25.0197 29.9188L26.1717 31.0709C26.367 31.2661 26.6836 31.2661 26.8788 31.0709L29.1672 28.7825Z" />
    </mask>
    <path fill-rule="evenodd" clip-rule="evenodd"
        d="M23 26C22.4477 26 22 26.4477 22 27V32C22 32.5523 22.4477 33 23 33H31C31.5523 33 32 32.5523 32 32V27C32 26.4477 31.5523 26 31 26H23ZM29.1672 28.7825C29.3625 28.5872 29.3625 28.2707 29.1672 28.0754C28.972 27.8801 28.6554 27.8801 28.4601 28.0754L26.5253 30.0102L25.7268 29.2117C25.5315 29.0164 25.2149 29.0164 25.0197 29.2117C24.8244 29.407 24.8244 29.7235 25.0197 29.9188L26.1717 31.0709C26.367 31.2661 26.6836 31.2661 26.8788 31.0709L29.1672 28.7825Z"
        fill="white" />
    <path
        d="M29.1672 28.0754L28.4601 28.7825L28.4601 28.7825L29.1672 28.0754ZM29.1672 28.7825L28.4601 28.0754L28.4601 28.0754L29.1672 28.7825ZM28.4601 28.0754L29.1672 28.7825L29.1672 28.7825L28.4601 28.0754ZM26.5253 30.0102L25.8182 30.7173L26.5253 31.4244L27.2324 30.7173L26.5253 30.0102ZM25.7268 29.2117L25.0197 29.9188H25.0197L25.7268 29.2117ZM25.0197 29.9188L25.7268 29.2117V29.2117L25.0197 29.9188ZM26.1717 31.0709L25.4646 31.778L25.4646 31.778L26.1717 31.0709ZM23 27V27V25C21.8954 25 21 25.8954 21 27H23ZM23 32V27H21V32H23ZM23 32H23H21C21 33.1046 21.8954 34 23 34V32ZM31 32H23V34H31V32ZM31 32V34C32.1046 34 33 33.1046 33 32H31ZM31 27V32H33V27H31ZM31 27H33C33 25.8954 32.1046 25 31 25V27ZM23 27H31V25H23V27ZM28.4601 28.7825C28.2648 28.5872 28.2648 28.2707 28.4601 28.0754L29.8743 29.4896C30.4601 28.9038 30.4601 27.9541 29.8743 27.3683L28.4601 28.7825ZM29.1672 28.7825C28.972 28.9778 28.6554 28.9778 28.4601 28.7825L29.8743 27.3683C29.2885 26.7825 28.3388 26.7825 27.753 27.3683L29.1672 28.7825ZM27.2324 30.7173L29.1672 28.7825L27.753 27.3683L25.8182 29.3031L27.2324 30.7173ZM25.0197 29.9188L25.8182 30.7173L27.2324 29.3031L26.4339 28.5046L25.0197 29.9188ZM25.7268 29.9188C25.5315 30.1141 25.2149 30.1141 25.0197 29.9188L26.4339 28.5046C25.8481 27.9188 24.8983 27.9188 24.3126 28.5046L25.7268 29.9188ZM25.7268 29.2117C25.922 29.407 25.922 29.7235 25.7268 29.9188L24.3126 28.5046C23.7268 29.0904 23.7268 30.0401 24.3126 30.6259L25.7268 29.2117ZM26.8788 30.3638L25.7268 29.2117L24.3126 30.6259L25.4646 31.778L26.8788 30.3638ZM26.1717 30.3638C26.367 30.1685 26.6836 30.1685 26.8788 30.3638L25.4646 31.778C26.0504 32.3638 27.0002 32.3638 27.5859 31.778L26.1717 30.3638ZM28.4601 28.0754L26.1717 30.3638L27.5859 31.778L29.8743 29.4896L28.4601 28.0754Z"
        fill="white" mask="url(#path-3-inside-1)" />
    <defs>
        <filter id="filter0_d" x="0" y="0" width="54" height="54" filterUnits="userSpaceOnUse"
            color-interpolation-filters="sRGB">
            <feFlood flood-opacity="0" result="BackgroundImageFix" />
            <feColorMatrix in="SourceAlpha" type="matrix"
                values="0 0 0 0 0 0 0 0 0 0 0 0 0 0 0 0 0 0 127 0" />
            <feOffset />
            <feGaussianBlur stdDeviation="7.5" />
            <feColorMatrix type="matrix" values="0 0 0 0 0 0 0 0 0 0 0 0 0 0 0 0 0 0 0.12 0" />
            <feBlend mode="normal" in2="BackgroundImageFix" result="effect1_dropShadow" />
            <feBlend mode="normal" in="SourceGraphic" in2="effect1_dropShadow" result="shape" />
        </filter>
    </defs>
</svg>
