<svg width="27" height="23" viewBox="0 0 27 23" fill="none" xmlns="http://www.w3.org/2000/svg">
    <path fill-rule="evenodd" clip-rule="evenodd"
        d="M12.8103 0.884753L5.78631 6.9805V16.0194L12.8103 22.1151C13.4578 22.677 14.4658 22.2171 14.4658 21.3599V1.64C14.4658 0.782762 13.4578 0.322884 12.8103 0.884753ZM1 6.9805C0.447715 6.9805 0 7.42822 0 7.9805V15.0194C0 15.5717 0.447715 16.0194 1 16.0194H5.7863V6.9805H1Z"
        fill="#8A62F1" />
    <line x1="1" y1="-1" x2="11.9812" y2="-1"
        transform="matrix(-0.69262 0.721303 -0.69262 -0.721303 25.6865 6.25)" stroke="white"
        stroke-width="2" stroke-linecap="round" />
    <line x1="1" y1="-1" x2="11.9812" y2="-1"
        transform="matrix(0.69262 0.721303 -0.69262 0.721303 16.6958 7.58765)" stroke="white"
        stroke-width="2" stroke-linecap="round" />
</svg>
