<svg width="11" height="11" viewBox="0 0 11 11" fill="none" xmlns="http://www.w3.org/2000/svg">
    <path fill-rule="evenodd" clip-rule="evenodd"
        d="M9 1H5C4.44772 1 4 1.44772 4 2V6C4 6.55228 4.44772 7 5 7H9C9.55228 7 10 6.55228 10 6V2C10 1.44772 9.55228 1 9 1ZM5 0C3.89543 0 3 0.895431 3 2V6C3 7.10457 3.89543 8 5 8H9C10.1046 8 11 7.10457 11 6V2C11 0.895431 10.1046 0 9 0H5Z"
        fill="#1599F3" />
    <path fill-rule="evenodd" clip-rule="evenodd"
        d="M3 3H2C0.895431 3 0 3.89543 0 5V9C0 10.1046 0.895431 11 2 11H6C7.10457 11 8 10.1046 8 9V8H7V9C7 9.55228 6.55228 10 6 10H2C1.44772 10 1 9.55228 1 9V5C1 4.44772 1.44772 4 2 4H3V3Z"
        fill="#1599F3" />
</svg>
