<svg width="16" height="20" viewBox="0 0 16 20" fill="none" xmlns="http://www.w3.org/2000/svg">
    <path fill-rule="evenodd" clip-rule="evenodd"
        d="M6.95756 20C5.04431 18.8334 3.76471 16.7108 3.76471 14.2857C3.76471 11.3157 5.68396 8.79937 8.3359 7.93729C9.54614 7.18288 10.3529 5.82964 10.3529 4.28571C10.3529 1.91878 8.45673 0 6.11765 0C3.77856 0 1.88235 1.91878 1.88235 4.28571C1.88235 5.81072 2.6695 7.14969 3.8551 7.90929C1.6147 8.65842 0 10.7737 0 13.2661V20H6.95756Z"
        fill="#239EF2" />
    <path fill-rule="evenodd" clip-rule="evenodd"
        d="M10.353 20C13.4717 20 16 17.4416 16 14.2857C16 11.1298 13.4717 8.57143 10.353 8.57143C7.23418 8.57143 4.7059 11.1298 4.7059 14.2857C4.7059 17.4416 7.23418 20 10.353 20ZM13.2454 13.4603C13.5337 13.175 13.5337 12.7124 13.2454 12.4271C12.9571 12.1418 12.4897 12.1418 12.2014 12.4271L9.34474 15.254L8.16577 14.0874C7.87747 13.8021 7.41005 13.8021 7.12176 14.0874C6.83346 14.3726 6.83346 14.8352 7.12176 15.1205L8.82274 16.8038C9.11103 17.089 9.57845 17.089 9.86675 16.8038L13.2454 13.4603Z"
        fill="#239EF2" />
</svg>
