<svg width="17" height="17" viewBox="0 0 17 17" fill="none" xmlns="http://www.w3.org/2000/svg">
    <path fill-rule="evenodd" clip-rule="evenodd"
        d="M8.5 17C13.1944 17 17 13.1944 17 8.5C17 3.80558 13.1944 0 8.5 0C3.80558 0 0 3.80558 0 8.5C0 13.1944 3.80558 17 8.5 17ZM12.8538 7.27214C13.2877 6.84777 13.2877 6.15972 12.8538 5.73535C12.4198 5.31098 11.7162 5.31098 11.2823 5.73535L6.9824 9.94039L5.2078 8.20494C4.77385 7.78057 4.07029 7.78057 3.63634 8.20494C3.2024 8.62931 3.2024 9.31736 3.63634 9.74173L6.19667 12.2456C6.63062 12.67 7.33418 12.67 7.76813 12.2456L12.8538 7.27214Z"
        fill="#1599F3" />
</svg>
