<svg width="21" height="26" viewBox="0 0 21 26" fill="none" xmlns="http://www.w3.org/2000/svg">
    <path
        d="M0 9.95745C0 17.1489 7.18421 22.6809 10.5 26C13.8158 22.6809 21 17.1489 21 9.95745C21 3.31915 14.9211 0 10.5 0C6.07895 0 0 2.76596 0 9.95745Z"
        fill="#8A62F1" />
    <path
        d="M17.1843 10.5106C17.1843 14.2067 14.1912 17.2021 10.5001 17.2021C6.80902 17.2021 3.81592 14.2067 3.81592 10.5106C3.81592 6.8145 6.80902 3.81909 10.5001 3.81909C14.1912 3.81909 17.1843 6.8145 17.1843 10.5106Z"
        stroke="white" />
    <line x1="10.521" y1="5.23682" x2="10.521" y2="11.9489" stroke="white" />
    <line x1="10.021" y1="11.4489" x2="13.8526" y2="11.4489" stroke="white" />
</svg>
