<svg width="16" height="23" viewBox="0 0 16 23" fill="none" xmlns="http://www.w3.org/2000/svg">
    <path fill-rule="evenodd" clip-rule="evenodd"
        d="M4.48923 5.37313C3.82818 6.33568 3.6 7.51593 3.6 8.29032V15H2V8.29032C2 7.24751 2.29182 5.70195 3.19077 4.393C4.11909 3.04129 5.65926 2 8 2C10.2889 2 11.8214 2.8572 12.7693 4.02502C13.6915 5.16122 14 6.51681 14 7.45161V10.3871H12.4V7.45161C12.4 6.84878 12.1885 5.89792 11.5507 5.11207C10.9386 4.35786 9.87107 3.67742 8 3.67742C6.18074 3.67742 5.12091 4.45334 4.48923 5.37313Z"
        fill="#239EF2" />
    <path fill-rule="evenodd" clip-rule="evenodd"
        d="M1 11.8C0.447715 11.8 0 12.2477 0 12.8V22C0 22.5523 0.447715 23 1 23H15C15.5523 23 16 22.5523 16 22V12.8C16 12.2477 15.5523 11.8 15 11.8H1ZM9.68696 17.1565C9.68696 17.8961 9.08741 18.4956 8.34783 18.4956C7.60824 18.4956 7.0087 17.8961 7.0087 17.1565C7.0087 16.4169 7.60824 15.8174 8.34783 15.8174C9.08741 15.8174 9.68696 16.4169 9.68696 17.1565ZM11.687 17.1565C11.687 19.0007 10.192 20.4956 8.34783 20.4956C6.50368 20.4956 5.0087 19.0007 5.0087 17.1565C5.0087 15.3124 6.50368 13.8174 8.34783 13.8174C10.192 13.8174 11.687 15.3124 11.687 17.1565Z"
        fill="#239EF2" />
</svg>
