<svg width="24" height="23" viewBox="0 0 24 23" fill="none" xmlns="http://www.w3.org/2000/svg">
    <path fill-rule="evenodd" clip-rule="evenodd"
        d="M13.2376 0.835577L5.95295 6.98053V16.0194L13.2376 22.1644C13.8878 22.7129 14.8824 22.2507 14.8824 21.4V1.59994C14.8824 0.749293 13.8878 0.287094 13.2376 0.835577ZM1 6.98053C0.447715 6.98053 0 7.42824 0 7.98053V15.0194C0 15.5717 0.447715 16.0194 1 16.0194H5.95294V6.98053H1Z"
        fill="#FDA627" />
    <path
        d="M17.5885 8.48706C17.5885 8.48706 18.9414 9.17182 18.9414 11.2261C18.9414 13.2804 17.5885 13.9652 17.5885 13.9652"
        stroke="white" stroke-width="2" stroke-linecap="round" />
    <path
        d="M18.9412 3.00891C18.9412 3.00891 23 5.0632 23 11.2261C23 17.389 18.9412 19.4433 18.9412 19.4433"
        stroke="white" stroke-width="2" stroke-linecap="round" />
</svg>
