<svg width="19" height="23" viewBox="0 0 19 23" fill="none" xmlns="http://www.w3.org/2000/svg">
    <path fill-rule="evenodd" clip-rule="evenodd"
        d="M8.2621 23C5.99012 21.6584 4.47059 19.2174 4.47059 16.4286C4.47059 13.0131 6.7497 10.1193 9.89888 9.12788C11.336 8.26031 12.2941 6.70408 12.2941 4.92857C12.2941 2.2066 10.0424 0 7.26471 0C4.48704 0 2.2353 2.2066 2.2353 4.92857C2.2353 6.68707 3.1751 8.23047 4.58936 9.10276C1.92296 9.98896 0 12.5038 0 15.4678V23H8.2621Z"
        fill="#AFB7CB" />
    <path fill-rule="evenodd" clip-rule="evenodd"
        d="M12.2943 23C15.9978 23 19.0001 20.0579 19.0001 16.4286C19.0001 12.7993 15.9978 9.85718 12.2943 9.85718C8.5907 9.85718 5.58838 12.7993 5.58838 16.4286C5.58838 20.0579 8.5907 23 12.2943 23ZM15.7291 15.4793C16.0714 15.1512 16.0714 14.6193 15.7291 14.2912C15.3867 13.9631 14.8317 13.9631 14.4893 14.2912L11.097 17.5422L9.69697 16.2005C9.35462 15.8724 8.79956 15.8724 8.45721 16.2005C8.11486 16.5286 8.11486 17.0605 8.45721 17.3886L10.4771 19.3243C10.8195 19.6524 11.3745 19.6524 11.7169 19.3243L15.7291 15.4793Z"
        fill="#AFB7CB" />
</svg>
