<svg width="16" height="19" viewBox="0 0 16 19" fill="none" xmlns="http://www.w3.org/2000/svg">
    <path fill-rule="evenodd" clip-rule="evenodd"
        d="M12.8 6.33333V7.91667H14.4V6.33333C14.4 2.83553 11.5346 0 8.00001 0C4.46538 0 1.60001 2.83553 1.60001 6.33333V7.91667H3.20001V6.33333C3.20001 3.70998 5.34904 1.58333 8.00001 1.58333C10.651 1.58333 12.8 3.70998 12.8 6.33333Z"
        fill="#1599F3" />
    <path fill-rule="evenodd" clip-rule="evenodd"
        d="M1 7.91667C0.447715 7.91667 0 8.36439 0 8.91667V18C0 18.5523 0.447715 19 1 19H15C15.5523 19 16 18.5523 16 18V8.91667C16 8.36439 15.5523 7.91667 15 7.91667H1ZM10.5 14.366C11.1667 13.9811 11.1667 13.0189 10.5 12.634L6.75 10.4689C6.08333 10.084 5.25 10.5651 5.25 11.3349L5.25 15.6651C5.25 16.4349 6.08333 16.916 6.75 16.5311L10.5 14.366Z"
        fill="#1599F3" />
</svg>
