<svg width="49" height="49" viewBox="0 0 49 49" fill="none" xmlns="http://www.w3.org/2000/svg">
    <g clip-path="url(#clip0)">
        <path
            d="M46.9716 5.90123C45.7852 4.62276 44.0678 3.94176 41.8677 3.87718C35.656 3.67689 31.2629 6.98145 28.8108 13.6978C28.6821 14.0505 28.7607 14.4416 29.0156 14.7185C29.2693 14.9939 29.6503 15.1034 30.0105 15.0046C30.7157 14.8107 31.415 14.7124 32.0892 14.7124C32.9944 14.7124 34.1992 14.8789 34.7989 15.6717C35.2592 16.2803 35.3218 17.1927 34.9851 18.3836C34.7008 19.3883 33.2378 22.0778 31.427 24.9237C29.2211 28.3911 28.0025 29.9455 27.6511 29.9455C26.4871 29.9455 22.2811 11.2952 22.1655 10.8862C20.959 6.61182 20.3535 4.46628 16.4304 4.46628C13.4405 4.46628 6.77181 9.92631 1.2962 14.6831C0.959423 14.9756 0.675821 15.2221 0.456232 15.4097C-0.0730386 15.8622 -0.152858 16.6482 0.274803 17.199L1.29519 18.5136C1.72499 19.0675 2.50896 19.1831 3.08035 18.7768L3.13646 18.7368C4.90796 17.4765 6.58146 16.2863 7.8448 16.221C9.21765 16.1536 10.4088 18.2983 11.829 23.4019C14.5337 33.3148 18.643 45.1314 22.8603 45.1314C27.2674 45.1314 32.525 41.3955 39.3212 32.5512C45.4721 24.5464 48.7657 18.1977 48.9773 13.5787C49.1362 10.09 48.4614 7.507 46.9716 5.90123Z"
            fill="#00ADEF" />
    </g>
    <defs>
        <clipPath id="clip0">
            <rect width="49" height="49" fill="white" />
        </clipPath>
    </defs>
</svg>
