<svg width="39" height="21" viewBox="0 0 39 21" fill="none" xmlns="http://www.w3.org/2000/svg">
    <path
        d="M1 11.2776C1 5.60144 5.60144 1 11.2776 1H27.7306C33.4022 1 38 5.59775 38 11.2694C38 14.974 35.3517 18.1489 31.7073 18.8137L28.312 19.4329C26.7563 19.7167 25.1796 19.0573 24.289 17.7507L22.7755 15.5302C21.1985 13.2165 17.7935 13.1973 16.1906 15.4931L14.5871 17.7896C13.6897 19.0749 12.1241 19.7176 10.5825 19.4335L7.28402 18.8256C3.64302 18.1545 1 14.9799 1 11.2776Z"
        stroke="#8A62F1" stroke-width="2" />
    <circle cx="28" cy="10" r="4" stroke="#8A62F1" stroke-width="2" />
    <circle cx="11" cy="10" r="4" stroke="#8A62F1" stroke-width="2" />
</svg>
