<svg width="25" height="25" viewBox="0 0 25 25" fill="none" xmlns="http://www.w3.org/2000/svg">
    <circle r="5.38788" transform="matrix(0.714669 -0.699463 0.714669 0.699463 13.2073 13.0131)"
        stroke="#1599F3" stroke-width="2" />
    <rect x="1.30435" width="1.82511" height="6.69206" rx="0.912554"
        transform="matrix(0.714669 -0.699463 0.714669 0.699463 15.7534 19.0318)" fill="#1599F3"
        stroke="#1599F3" stroke-width="1.82511" stroke-linejoin="round" />
    <path fill-rule="evenodd" clip-rule="evenodd"
        d="M0 3C0 1.34315 1.34315 0 3 0H10.0769C11.7338 0 13.0769 1.34315 13.0769 3V5.61578C13.0513 5.61552 13.0257 5.61539 13 5.61539C8.92159 5.61539 5.61539 8.92159 5.61539 13C5.61539 15.4716 6.82962 17.6596 8.6941 19H2V20.2308C2 20.7831 2.44771 21.2308 3 21.2308H10.0769C10.6292 21.2308 11.0769 20.7831 11.0769 20.2308V20.1317C11.6901 20.2967 12.3348 20.3846 13 20.3846C13.0244 20.3846 13.0487 20.3845 13.0731 20.3843C12.9932 21.9698 11.6823 23.2308 10.0769 23.2308H3C1.34314 23.2308 0 21.8876 0 20.2308V3ZM3 2C2.44772 2 2 2.44772 2 3V4H11.0769V3C11.0769 2.44771 10.6292 2 10.0769 2H3Z"
        fill="#1599F3" />
</svg>
